<?xml version="1.0" encoding="UTF-8" standalone="no"?>
<!DOCTYPE svg PUBLIC "-//W3C//DTD SVG 1.1//EN" "http://www.w3.org/Graphics/SVG/1.1/DTD/svg11.dtd">
<svg width="100%" height="100%" viewBox="0 0 1080 500" version="1.1" xmlns="http://www.w3.org/2000/svg" xmlns:xlink="http://www.w3.org/1999/xlink" xml:space="preserve" xmlns:serif="http://www.serif.com/" style="fill-rule:evenodd;clip-rule:evenodd;stroke-linejoin:round;stroke-miterlimit:2;">
    <g>
        <g transform="matrix(2.35564,0,0,2.35564,-985.788,-843.833)">
            <text x="558.683px" y="454.508px" style="font-family:'Corbel-Bold', 'Corbel', sans-serif;font-weight:700;font-size:50px;fill:rgb(39,45,45);">Mark<tspan x="668.033px 693.668px " y="454.508px 454.508px ">et</tspan></text>
            <text x="628.141px" y="506.144px" style="font-family:'OCRAExtended', 'OCR A Extended', monospace;font-size:50px;fill:rgb(22,219,101);">4</text>
            <text x="658.341px" y="506.144px" style="font-family:'OCRAExtended', 'OCR A Extended', monospace;font-size:50px;fill:rgb(39,45,45);">.</text>
            <text x="688.541px" y="506.144px" style="font-family:'OCRAExtended', 'OCR A Extended', monospace;font-size:50px;fill:rgb(22,219,101);">0</text>
        </g>
        <g id="meat" transform="matrix(1.14665,-1.17501,1.17501,1.14665,403.52,66.6848)">
            <g transform="matrix(1,0,0,1,-24.909,-24.909)">
                <clipPath id="_clip1">
                    <rect x="0" y="0" width="49.818" height="49.818"/>
                </clipPath>
                <g clip-path="url(#_clip1)">
                    <g>
                        <path d="M0.953,38.891C0.953,38.891 4.137,45.812 12.358,48.531C14.185,49.135 16.109,49.282 18.025,49.453C25.891,50.156 44.739,48.482 49.091,30.477C50.458,24.821 49.851,18.865 47.662,13.474C44.51,5.711 37.447,-4.233 22.831,2.427C14.503,6.222 15.135,12.706 16.918,17.214C19.075,22.67 14.675,28.295 8.858,27.53C1.669,26.584 -1.825,30.904 0.953,38.891Z" style="fill:rgb(153,69,48);fill-rule:nonzero;"/>
                        <g>
                            <path d="M4.69,37.18C5.092,37.965 7.748,42.732 13.801,44.734C15.136,45.175 16.664,45.311 18.283,45.454L18.565,45.479C19.383,45.552 20.263,45.589 21.182,45.589C39.362,45.589 44.036,34.371 45.202,29.548C46.336,24.855 45.908,19.845 43.967,15.06C41.049,7.874 36.856,4.229 31.506,4.229C29.296,4.229 26.823,4.844 24.157,6.059C21.165,7.423 17.481,9.98 20.027,16.419C21.311,19.669 20.939,23.165 19.004,26.01C16.834,29.201 13.002,30.911 9.109,30.4C8.616,30.335 8.143,30.301 7.705,30.301C6.628,30.301 5.203,30.499 4.532,31.444C3.765,32.524 3.823,34.609 4.69,37.18Z" style="fill:rgb(215,90,74);fill-rule:nonzero;"/>
                            <path d="M21.184,46.589C20.236,46.589 19.326,46.551 18.478,46.475L18.195,46.45C16.521,46.303 14.938,46.163 13.489,45.683C7.113,43.575 4.301,38.61 3.801,37.636L3.743,37.499C2.759,34.582 2.75,32.226 3.717,30.864C4.629,29.579 6.607,29.057 9.241,29.408C12.778,29.874 16.2,28.354 18.177,25.447C19.923,22.882 20.259,19.724 19.098,16.786C15.909,8.721 21.805,6.032 23.743,5.148C33.423,0.741 40.553,3.993 44.895,14.683C46.916,19.664 47.359,24.885 46.175,29.782C44.953,34.836 40.073,46.589 21.184,46.589ZM5.613,36.787C6.014,37.545 8.549,41.942 14.116,43.784C15.345,44.19 16.815,44.32 18.372,44.457L18.656,44.482C19.444,44.552 20.295,44.588 21.183,44.588C38.652,44.588 43.121,33.905 44.231,29.312C45.315,24.825 44.903,20.026 43.041,15.435C40.29,8.663 36.409,5.229 31.506,5.229C29.439,5.229 27.106,5.814 24.572,6.969C21.552,8.345 18.762,10.501 20.957,16.052C22.365,19.615 21.955,23.45 19.831,26.573C17.427,30.107 13.268,31.959 8.979,31.391C7.186,31.155 5.782,31.41 5.347,32.023C4.912,32.636 4.756,34.207 5.613,36.787Z" style="fill:rgb(198,73,64);fill-rule:nonzero;"/>
                        </g>
                        <g>
                            <circle cx="32.455" cy="12.779" r="4" style="fill:rgb(230,230,230);"/>
                            <path d="M32.455,17.779C29.698,17.779 27.455,15.536 27.455,12.779C27.455,10.022 29.698,7.779 32.455,7.779C35.212,7.779 37.455,10.022 37.455,12.779C37.455,15.536 35.212,17.779 32.455,17.779ZM32.455,9.779C30.801,9.779 29.455,11.125 29.455,12.779C29.455,14.433 30.801,15.779 32.455,15.779C34.109,15.779 35.455,14.433 35.455,12.779C35.455,11.125 34.109,9.779 32.455,9.779Z" style="fill:rgb(122,55,38);fill-rule:nonzero;"/>
                        </g>
                        <path d="M25.617,45.684L23.676,45.205C24.111,43.444 22.613,41.989 20.23,40.346C17.355,38.362 15.413,35.229 14.903,31.751C14.717,30.485 14.478,29.466 14.475,29.456L16.397,28.908C16.407,28.936 17.487,32.012 20.375,33.222C22.469,34.099 25.042,33.82 28.023,32.39C39.601,26.836 45.125,29.744 45.355,29.87L44.388,31.622C44.348,31.601 39.418,29.142 28.888,34.192C25.358,35.886 22.226,36.176 19.576,35.055C18.775,34.716 18.086,34.276 17.498,33.79C18.267,35.764 19.608,37.485 21.365,38.697C23.149,39.931 26.472,42.222 25.617,45.684Z" style="fill:rgb(198,73,64);fill-rule:nonzero;"/>
                        <path d="M27.074,27.586C21.704,27.586 19.469,23.892 19.441,23.846L21.168,22.836L20.305,23.341L21.164,22.83C21.272,23.009 23.878,27.165 30.902,24.935C32.442,24.141 42.94,18.933 46.521,22.646L45.082,24.035C43.103,21.983 35.853,24.611 31.75,26.749L31.596,26.813C29.892,27.364 28.389,27.586 27.074,27.586Z" style="fill:rgb(198,73,64);fill-rule:nonzero;"/>
                    </g>
                </g>
            </g>
        </g>
        <g id="fruit" transform="matrix(1.41171,1.20261,-1.20261,1.41171,848.137,130.198)">
            <g transform="matrix(1,0,0,1,-28.5,-28.5)">
                <g>
                    <path d="M29.841,9.386L26.905,10L24.038,1.455L29.038,0L29.841,9.386Z" style="fill:rgb(101,156,53);fill-rule:nonzero;"/>
                    <path d="M36.143,8.465C37.219,7.486 38.036,6.304 38.452,4.911C32.995,2.88 31.296,5.513 31.296,5.513C31.217,4.444 30.408,3.991 29.371,3.885L29.842,9.385L26.905,10L26.904,9.998L25.148,4.764C24.624,5.028 24.271,5.302 24.255,5.513C24.255,5.513 22.555,2.88 17.099,4.911C17.528,6.343 18.365,7.565 19.488,8.558C15.101,9.179 11.069,10.689 9.039,14.402C19.316,17.477 22.375,12.52 22.375,12.52C22.998,19.256 28.216,21.245 29.005,21.52C29.794,21.245 35.012,19.256 35.635,12.52C35.635,12.52 36.762,17.477 47.04,14.402C44.775,10.663 40.543,9.082 36.143,8.465Z" style="fill:rgb(136,192,87);fill-rule:nonzero;"/>
                    <path d="M45.326,14.923C45.311,14.905 45.299,14.885 45.284,14.867C36.637,16.89 35.634,12.52 35.634,12.52C35.011,19.256 29.793,21.245 29.004,21.52C28.215,21.245 22.997,19.256 22.374,12.52C22.374,12.52 19.819,16.58 11.648,15.021C11.63,15.038 11.612,15.056 11.593,15.073C11.617,15.077 11.643,15.084 11.666,15.088C9.24,17.528 7.961,21.316 7.961,27.052C7.962,39.874 20.848,57 28.5,57C36.152,57 49.038,39.874 49.038,27.051C49.038,21.208 47.71,17.387 45.196,14.952C45.238,14.944 45.284,14.932 45.326,14.923Z" style="fill:rgb(226,47,55);fill-rule:nonzero;"/>
                    <path d="M17.295,20.672C17.173,20.281 16.62,20.281 16.499,20.672C16.499,20.672 14.983,25.966 14.983,26.477C14.983,26.988 15.182,27.469 15.544,27.831C15.905,28.193 16.386,28.392 16.897,28.392C17.408,28.392 17.889,28.193 18.25,27.831C18.612,27.469 18.811,26.989 18.811,26.477C18.811,25.965 17.295,20.672 17.295,20.672Z" style="fill:rgb(153,69,48);fill-rule:nonzero;"/>
                    <path d="M29.123,24.672C29.001,24.281 28.448,24.281 28.327,24.672C28.327,24.672 26.811,29.966 26.811,30.477C26.811,30.988 27.01,31.469 27.372,31.831C27.733,32.193 28.214,32.392 28.725,32.392C29.236,32.392 29.717,32.193 30.078,31.831C30.44,31.469 30.639,30.989 30.639,30.477C30.639,29.965 29.123,24.672 29.123,24.672Z" style="fill:rgb(153,69,48);fill-rule:nonzero;"/>
                    <path d="M40.295,20.66C40.173,20.269 39.62,20.269 39.499,20.66C39.499,20.66 37.983,25.954 37.983,26.465C37.983,26.976 38.182,27.457 38.544,27.819C38.905,28.181 39.386,28.38 39.897,28.38C40.408,28.38 40.889,28.181 41.25,27.819C41.612,27.457 41.811,26.977 41.811,26.465C41.811,25.953 40.295,20.66 40.295,20.66Z" style="fill:rgb(153,69,48);fill-rule:nonzero;"/>
                    <path d="M22.123,33.685C22.001,33.294 21.448,33.294 21.327,33.685C21.327,33.685 19.811,38.979 19.811,39.49C19.811,40.001 20.01,40.482 20.372,40.844C20.733,41.206 21.214,41.405 21.725,41.405C22.236,41.405 22.717,41.206 23.078,40.844C23.44,40.482 23.639,40.002 23.639,39.49C23.639,38.978 22.123,33.685 22.123,33.685Z" style="fill:rgb(153,69,48);fill-rule:nonzero;"/>
                    <path d="M29.123,42.66C29.001,42.269 28.448,42.269 28.327,42.66C28.327,42.66 26.811,47.954 26.811,48.465C26.811,48.976 27.01,49.457 27.372,49.819C27.733,50.181 28.214,50.38 28.725,50.38C29.236,50.38 29.717,50.181 30.078,49.819C30.44,49.457 30.639,48.977 30.639,48.465C30.639,47.953 29.123,42.66 29.123,42.66Z" style="fill:rgb(153,69,48);fill-rule:nonzero;"/>
                    <path d="M36.123,33.672C36.001,33.281 35.448,33.281 35.327,33.672C35.327,33.672 33.811,38.966 33.811,39.477C33.811,39.988 34.01,40.469 34.372,40.831C34.733,41.193 35.214,41.392 35.725,41.392C36.236,41.392 36.717,41.193 37.078,40.831C37.44,40.469 37.639,39.989 37.639,39.477C37.639,38.965 36.123,33.672 36.123,33.672Z" style="fill:rgb(153,69,48);fill-rule:nonzero;"/>
                </g>
            </g>
        </g>
        <g id="fish" transform="matrix(-2.53905,-0.397074,0.397074,-2.53905,288.834,375.652)">
            <g transform="matrix(1,0,0,1,-22.76,-22.76)">
                <g>
                    <path d="M45.028,13.98C45.602,13.361 45.35,12.297 44.578,11.953C42.78,11.153 43.517,8.494 42.014,8.635C40.29,8.796 39.024,7.531 39.186,5.807C39.347,4.083 38.082,2.817 36.358,2.979C34.634,3.14 36.314,0.46 33.53,0.151C33.53,0.151 31.585,-0.6 31.4,1.262L31.371,8.52L20.164,8.52C9.126,8.52 0.178,17.468 0.178,28.506L0.178,45.52L17.054,45.52C28.168,45.52 37.178,36.51 37.178,25.396L37.178,14.237L44.422,14.304C44.678,14.264 44.875,14.144 45.028,13.98Z" style="fill:rgb(105,139,158);fill-rule:nonzero;"/>
                    <path d="M21.951,39.899L19.951,39.899C19.951,32.179 13.671,25.899 5.951,25.899L5.951,23.899C14.773,23.899 21.951,31.076 21.951,39.899Z" style="fill:rgb(93,121,137);fill-rule:nonzero;"/>
                    <path d="M25.206,36.644L23.206,36.644C23.206,28.924 16.926,22.644 9.206,22.644L9.206,20.644C18.028,20.644 25.206,27.822 25.206,36.644Z" style="fill:rgb(93,121,137);fill-rule:nonzero;"/>
                    <path d="M28.315,33.534L26.315,33.534C26.315,25.814 20.035,19.534 12.315,19.534L12.315,17.534C21.137,17.534 28.315,24.712 28.315,33.534Z" style="fill:rgb(93,121,137);fill-rule:nonzero;"/>
                    <path d="M31.57,30.28L29.57,30.28C29.57,22.56 23.29,16.28 15.57,16.28L15.57,14.28C24.392,14.28 31.57,21.457 31.57,30.28Z" style="fill:rgb(93,121,137);fill-rule:nonzero;"/>
                    <path d="M14.824,9.263C14.43,7.283 13.613,5.13 12.054,2.978C12.054,2.978 3.83,7.056 7.203,13.309C9.388,11.444 11.978,10.052 14.824,9.263Z" style="fill:rgb(84,106,121);fill-rule:nonzero;"/>
                    <path d="M36.819,29.131C36.214,32.352 34.84,35.295 32.897,37.778C35.76,38.104 39.961,37.823 44.135,34.798C44.135,34.798 41.335,29.151 36.819,29.131Z" style="fill:rgb(84,106,121);fill-rule:nonzero;"/>
                    <circle cx="5.951" cy="33.384" r="2" style="fill:rgb(56,69,79);"/>
                </g>
            </g>
        </g>
        <g id="food" transform="matrix(1.17121,-1.80654,1.80654,1.17121,239.881,85.6856)">
            <g transform="matrix(1,0,0,1,-25.8075,-25.8075)">
                <clipPath id="_clip2">
                    <rect x="0" y="0" width="51.615" height="51.615"/>
                </clipPath>
                <g clip-path="url(#_clip2)">
                    <g>
                        <path d="M47.923,33.056C48.311,32.625 48.858,32.354 49.51,32.301C49.727,32.283 49.956,32.29 50.195,32.322C50.393,32.349 50.589,32.399 50.782,32.462C50.96,32.516 51.134,32.589 51.307,32.668L51.307,30.434C51.307,28.559 50.436,26.79 48.95,25.646L31.54,9.176C30.991,9.627 30.197,9.781 29.303,9.505C27.649,8.993 26.308,7.237 26.308,5.582C26.308,5.156 26.399,4.781 26.559,4.464L23.579,1.645C21.407,-0.01 18.97,-0.37 17.308,0.357L2.479,7.51C1.138,8.089 0.307,9.45 0.307,10.95C0.307,10.962 0.307,10.962 0.307,10.959L0.307,26.706C0.77,26.621 1.283,26.64 1.834,26.811C3.752,27.405 5.307,29.441 5.307,31.359C5.307,33.277 3.752,34.351 1.834,33.757C1.283,33.587 0.77,33.288 0.307,32.916L0.307,35.079C0.307,36.767 1.456,38.238 3.093,38.647L46.737,51.504C49.058,52.084 51.307,50.329 51.307,47.936L51.307,39.595L51.306,39.595C50.367,39.443 49.456,38.918 48.739,38.178C48.723,38.162 48.71,38.143 48.695,38.126C48.534,37.956 48.381,37.779 48.242,37.59C48.196,37.528 48.161,37.459 48.118,37.395C48.018,37.245 47.915,37.097 47.831,36.938C47.764,36.813 47.716,36.68 47.66,36.55C47.615,36.445 47.559,36.342 47.522,36.235C47.438,35.993 47.374,35.746 47.333,35.496C47.292,35.244 47.276,35.002 47.283,34.771C47.297,34.309 47.405,33.892 47.59,33.538C47.682,33.36 47.794,33.199 47.923,33.056Z" style="fill:rgb(238,175,75);fill-rule:nonzero;"/>
                        <path d="M50.196,32.322C50.575,32.374 50.947,32.503 51.308,32.668L51.308,30.433C51.308,28.698 50.096,27.2 48.4,26.837L29.233,21.129C29.243,21.232 29.263,21.335 29.263,21.437C29.263,23.092 27.922,24.018 26.268,23.505C24.614,22.993 23.273,21.237 23.273,19.582C23.273,19.504 23.29,19.435 23.296,19.36L2.244,13.091C1.073,12.866 0.498,11.975 0.373,10.965L0.308,10.95L0.308,26.705C0.771,26.62 1.284,26.639 1.835,26.81C3.753,27.404 5.308,29.44 5.308,31.358C5.308,33.276 3.753,34.35 1.835,33.756C1.284,33.586 0.771,33.287 0.308,32.915L0.308,35.078C0.308,36.766 1.457,38.237 3.094,38.646L46.738,51.503C49.059,52.083 51.308,50.328 51.308,47.935L51.308,39.594C49.428,39.29 47.659,37.479 47.333,35.495C47.002,33.482 48.284,32.061 50.196,32.322Z" style="fill:rgb(252,223,118);fill-rule:nonzero;"/>
                        <path d="M26.124,32.007C26.124,34.261 24.297,35.522 22.043,34.825C19.789,34.127 17.962,31.735 17.962,29.481C17.962,27.227 19.789,25.966 22.043,26.663C24.297,27.36 26.124,29.753 26.124,32.007Z" style="fill:rgb(244,196,78);fill-rule:nonzero;"/>
                        <path d="M22.043,26.663C20.371,26.145 18.937,26.71 18.307,27.955C18.937,29.59 20.371,31.042 22.043,31.56C23.715,32.078 25.149,31.513 25.779,30.268C25.149,28.633 23.715,27.18 22.043,26.663Z" style="fill:rgb(238,175,75);fill-rule:nonzero;"/>
                        <path d="M43.021,37.539C43.021,39.117 41.742,40 40.164,39.511C38.586,39.023 37.307,37.348 37.307,35.77C37.307,34.192 38.586,33.309 40.164,33.798C41.742,34.287 43.021,35.962 43.021,37.539Z" style="fill:rgb(244,196,78);fill-rule:nonzero;"/>
                        <path d="M15.021,35.539C15.021,37.117 13.742,38 12.164,37.511C10.586,37.022 9.307,35.348 9.307,33.77C9.307,32.192 10.586,31.309 12.164,31.798C13.742,32.287 15.021,33.962 15.021,35.539Z" style="fill:rgb(238,175,75);fill-rule:nonzero;"/>
                        <path d="M35.021,43.165C35.021,44.19 34.19,44.764 33.164,44.447C32.139,44.13 31.307,43.041 31.307,42.016C31.307,40.991 32.138,40.417 33.164,40.734C34.19,41.051 35.021,42.139 35.021,43.165Z" style="fill:rgb(238,175,75);fill-rule:nonzero;"/>
                        <path d="M34.308,31.277C34.308,32.302 33.477,32.876 32.451,32.559C31.426,32.242 30.594,31.153 30.594,30.128C30.594,29.103 31.425,28.529 32.451,28.846C33.476,29.163 34.308,30.251 34.308,31.277Z" style="fill:rgb(238,175,75);fill-rule:nonzero;"/>
                        <path d="M9.308,20.775C9.308,21.902 8.394,22.533 7.268,22.184C6.141,21.835 5.228,20.639 5.228,19.512C5.228,18.385 6.142,17.754 7.268,18.103C8.394,18.452 9.308,19.648 9.308,20.775Z" style="fill:rgb(244,196,78);fill-rule:nonzero;"/>
                        <path d="M29.263,21.437C29.263,23.091 27.922,24.017 26.268,23.505C24.614,22.993 23.273,21.237 23.273,19.582C23.273,17.928 24.614,17.002 26.268,17.514C27.921,18.026 29.263,19.782 29.263,21.437Z" style="fill:rgb(244,196,78);fill-rule:nonzero;"/>
                    </g>
                </g>
            </g>
        </g>
        <g id="tomato" transform="matrix(-1.80557,0.758258,-0.758258,-1.80557,663.94,417.593)">
            <g transform="matrix(1,0,0,1,-25.8395,-25.8395)">
                <g>
                    <path d="M40.47,8.458C37.908,6.816 33.096,4.528 28.473,6.642C28.028,6.846 27.521,6.525 27.521,6.035L27.521,1.786C27.522,0.804 26.855,0 26.04,0L23.817,0C23.002,0 22.335,0.804 22.335,1.786L22.335,6.287C22.335,6.712 21.95,7.034 21.533,6.948C19.656,6.561 14.782,5.959 10.121,8.743C9.483,9.124 9.853,10.124 10.585,9.99C12.755,9.593 15.611,9.32 17.541,10.082C18.047,10.281 18.12,10.973 17.665,11.271C16.294,12.166 13.765,14.224 12.108,18.008C11.826,18.652 12.618,19.229 13.161,18.782C15.278,17.038 18.761,14.675 21.715,15.056C22.063,15.101 22.327,15.385 22.322,15.736C22.292,17.718 22.317,24.452 23.954,27.001C24.212,27.403 24.79,27.423 25.071,27.036C26.114,25.603 28.375,21.803 28.282,15.869C28.276,15.479 28.589,15.162 28.979,15.175C30.469,15.223 33.987,15.644 36.777,18.369C37.234,18.816 37.991,18.43 37.911,17.796C37.692,16.061 36.737,13.437 33.28,11.402C32.755,11.093 32.844,10.307 33.435,10.162C34.629,9.869 36.687,9.59 40.079,9.702C40.768,9.723 41.049,8.829 40.47,8.458Z" style="fill:rgb(136,192,87);fill-rule:nonzero;"/>
                    <path d="M41.248,9.99C41.155,9.925 41.047,9.884 40.934,9.87C40.534,9.821 40.133,9.775 39.733,9.721C39.59,9.707 39.446,9.696 39.304,9.682C36.39,9.634 34.561,9.888 33.458,10.156C32.859,10.302 32.751,11.087 33.283,11.4C36.74,13.435 37.694,16.059 37.913,17.793C37.993,18.427 37.236,18.813 36.779,18.366C33.989,15.642 30.471,15.221 28.981,15.172C28.591,15.159 28.277,15.476 28.284,15.866C28.376,21.8 26.116,25.6 25.073,27.033C24.791,27.42 24.214,27.4 23.956,26.998C22.319,24.449 22.294,17.715 22.324,15.733C22.329,15.383 22.065,15.098 21.717,15.053C18.763,14.671 15.28,17.035 13.163,18.779C12.62,19.226 11.828,18.649 12.11,18.005C13.765,14.226 16.29,12.169 17.662,11.272C18.119,10.973 18.043,10.278 17.534,10.082C17.163,9.939 16.758,9.833 16.331,9.758C16.255,9.744 16.174,9.743 16.097,9.754C13.672,10.084 11.29,10.545 8.978,11.165C8.876,11.192 8.781,11.241 8.7,11.309C3.597,15.555 0.393,21.668 0.393,28.465C0.393,41.286 11.786,51.679 25.839,51.679C39.892,51.679 51.285,41.286 51.285,28.465C51.286,20.928 47.348,14.23 41.248,9.99Z" style="fill:rgb(209,56,52);fill-rule:nonzero;"/>
                    <path d="M5.791,34.636C5.449,34.636 5.116,34.461 4.93,34.146C4.182,32.883 3.692,31.488 3.473,30C3.393,29.453 3.771,28.945 4.317,28.865C4.873,28.779 5.372,29.163 5.452,29.709C5.63,30.922 6.045,32.104 6.651,33.127C6.932,33.602 6.776,34.216 6.3,34.497C6.14,34.591 5.964,34.636 5.791,34.636Z" style="fill:rgb(237,113,97);fill-rule:nonzero;"/>
                    <path d="M4.588,26.678C4.565,26.678 4.541,26.677 4.518,26.675C3.966,26.637 3.551,26.159 3.589,25.609C3.683,24.282 3.955,22.993 4.4,21.775C4.589,21.256 5.161,20.992 5.683,21.179C6.202,21.368 6.468,21.943 6.279,22.462C5.898,23.503 5.665,24.608 5.585,25.747C5.548,26.275 5.109,26.678 4.588,26.678Z" style="fill:rgb(237,113,97);fill-rule:nonzero;"/>
                </g>
            </g>
        </g>
        <g id="apple" transform="matrix(0.158789,0.145437,-0.145437,0.158789,802.509,318.088)">
            <g transform="matrix(1,0,0,1,-256,-256)">
                <path d="M465.19,285.054C465.19,346.661 425.128,431.801 376.689,478.312C355.207,498.967 332.069,512 310.042,512C296.12,512 282.234,509.764 270.288,506.157C253.92,501.203 236.513,501.203 220.145,506.157C208.2,509.764 194.315,512 180.392,512C157.316,512 133.004,497.682 110.656,475.285C63.614,428.181 25.244,345.338 25.244,285.053C25.244,196.108 78.451,142.37 128.482,129.399C152.448,123.185 180.256,127.188 202.714,133.031C225.939,139.084 250.077,140.097 273.598,136.07C278.342,135.255 283.048,134.242 287.718,133.031C310.177,127.188 337.972,123.185 361.95,129.399C411.984,142.371 465.19,196.109 465.19,285.054Z" style="fill:rgb(249,72,72);fill-rule:nonzero;"/>
                <path d="M376.687,478.307C317.243,488.811 271.457,485.901 236.958,477.547C180.623,463.906 138.715,416.391 131.731,358.851C114.238,214.741 208.398,172.785 208.398,172.785C235.996,185.324 267.028,178.628 267.028,178.628C247.225,158.838 273.6,136.07 273.6,136.07C250.079,140.097 225.94,139.084 202.716,133.031C180.257,127.188 152.45,123.185 128.484,129.399C78.451,142.371 25.245,196.109 25.245,285.054C25.245,373.987 108.742,512 180.392,512C194.314,512 208.2,509.764 220.146,506.157C236.514,501.203 253.92,501.203 270.289,506.157C282.235,509.764 296.12,512 310.043,512C332.069,512 355.207,498.967 376.69,478.312C376.687,478.309 376.69,478.312 376.687,478.307Z" style="fill:rgb(226,61,61);fill-rule:nonzero;"/>
                <path d="M486.756,5.506C486.756,5.506 474.402,91.622 409.337,116.688C347.137,140.654 291.694,75.86 268.952,80.962C267.927,81.172 266.975,81.543 266.086,82.074C266.049,82.086 266.037,82.099 266.037,82.099L266.049,82.05C266.815,79.728 291.757,5.434 355.81,0.566C420.874,-4.377 456.28,25.272 486.756,5.506Z" style="fill:rgb(199,244,146);fill-rule:nonzero;"/>
                <path d="M486.756,5.506C486.756,5.506 447.225,53.685 391.634,53.685C342.751,53.685 282.725,75.65 268.951,80.962C267.296,81.592 266.32,81.987 266.085,82.074C266.048,82.086 266.036,82.099 266.036,82.099L266.048,82.05C266.814,79.728 291.756,5.434 355.809,0.566C420.874,-4.377 456.28,25.272 486.756,5.506Z" style="fill:rgb(163,226,97);fill-rule:nonzero;"/>
                <g transform="matrix(-0.0989,-0.9951,0.9951,-0.0989,186.586,663.879)">
                    <ellipse cx="393.878" cy="247.459" rx="44.464" ry="28.771" style="fill:rgb(252,129,129);"/>
                </g>
                <path d="M291.289,166.437C291.289,176.555 275.402,184.98 254.315,186.894C251.375,187.166 248.336,187.302 245.223,187.302C241.974,187.302 238.812,187.154 235.76,186.87C214.87,184.881 199.169,176.493 199.169,166.437L291.289,166.437Z" style="fill:rgb(226,61,61);fill-rule:nonzero;"/>
                <path d="M280.368,81.012L246.581,132.328C249.113,142.73 251.3,154.194 252.721,166.436C253.499,173.045 254.055,179.877 254.315,186.893C251.375,187.165 248.336,187.301 245.223,187.301C241.974,187.301 238.812,187.153 235.76,186.869C235.488,179.852 234.883,173.033 234.055,166.436C228.002,118.467 209.496,83.136 209.274,82.741C206.877,78.22 208.595,72.611 213.116,70.215C217.637,67.806 223.246,69.523 225.642,74.045C226.186,75.083 232.992,88.091 239.861,108.845L264.902,70.821C267.706,66.547 273.463,65.373 277.725,68.19C281.999,70.994 283.185,76.738 280.368,81.012Z" style="fill:rgb(178,87,25);fill-rule:nonzero;"/>
            </g>
        </g>
        <g id="bread" transform="matrix(0.454035,2.74363,-2.74363,0.454035,925.712,265.842)">
            <g transform="matrix(1,0,0,1,-28.283,-28.283)">
                <clipPath id="_clip3">
                    <rect x="0" y="0" width="56.566" height="56.566"/>
                </clipPath>
                <g clip-path="url(#_clip3)">
                    <g>
                        <path d="M7.454,39.648C7.332,39.977 7.151,40.279 6.906,40.531C2.176,45.411 -1.676,52.264 0.988,54.928C3.722,57.662 11.801,57.115 16.698,52.218L51.698,17.218C56.595,12.321 57.731,3.652 54.997,0.919C52.277,-1.801 45.087,1.848 39.883,7.543C39.832,7.598 39.777,7.641 39.71,7.675C39.212,7.924 36.918,9.097 35.94,10.076C34.186,11.83 33.27,14.065 33.213,16.216C31.062,16.273 28.827,17.189 27.073,18.943C25.319,20.697 24.403,22.932 24.346,25.083C22.195,25.14 19.96,26.056 18.206,27.81C16.452,29.564 15.536,31.799 15.479,33.95C13.328,34.007 11.093,34.923 9.339,36.677C8.382,37.634 7.862,38.545 7.454,39.648Z" style="fill:rgb(217,159,76);fill-rule:nonzero;"/>
                        <path d="M39.884,7.543C39.833,7.598 39.778,7.641 39.711,7.675C39.549,7.756 39.187,7.942 38.75,8.181C38.737,8.472 38.741,8.747 38.77,8.989C38.973,10.673 40.045,12.145 41.87,13.25C42.032,13.348 42.21,13.395 42.387,13.395C42.725,13.395 43.056,13.223 43.243,12.913C43.529,12.44 43.378,11.826 42.905,11.54C42.013,11 40.917,10.078 40.756,8.75C40.629,7.704 41.105,6.531 42.128,5.329C41.354,6.021 40.599,6.76 39.884,7.543Z" style="fill:rgb(234,196,148);fill-rule:nonzero;"/>
                        <path d="M34.85,21.237C35.017,21.342 35.203,21.393 35.386,21.393C35.716,21.393 36.04,21.229 36.231,20.93C36.528,20.464 36.39,19.846 35.924,19.549C34.669,18.75 33.883,17.442 33.71,15.863C33.57,14.588 33.829,13.268 34.417,12.064C33.658,13.38 33.25,14.813 33.212,16.214C32.733,16.227 32.251,16.289 31.771,16.386C32.079,18.443 33.158,20.16 34.85,21.237Z" style="fill:rgb(234,196,148);fill-rule:nonzero;"/>
                        <path d="M25.845,30.234C26.013,30.341 26.2,30.393 26.386,30.393C26.714,30.393 27.036,30.232 27.228,29.935C27.527,29.47 27.393,28.852 26.929,28.552C25.333,27.525 24.859,25.999 24.741,24.901C24.605,23.629 24.883,22.275 25.486,21.036C24.765,22.323 24.381,23.719 24.345,25.082C23.825,25.096 23.3,25.162 22.779,25.276C23.048,27.369 24.128,29.127 25.845,30.234Z" style="fill:rgb(234,196,148);fill-rule:nonzero;"/>
                        <path d="M17.907,38.271C18.059,38.355 18.224,38.394 18.386,38.394C18.74,38.394 19.082,38.206 19.264,37.874C19.53,37.39 19.352,36.781 18.868,36.517C17.125,35.562 16.14,34.379 15.943,33C15.805,32.034 16.068,30.946 16.662,29.835C15.916,31.141 15.516,32.562 15.479,33.95C15.039,33.962 14.597,34.019 14.155,34.102C14.548,35.399 15.535,36.972 17.907,38.271Z" style="fill:rgb(234,196,148);fill-rule:nonzero;"/>
                        <path d="M8.802,46.204C8.979,46.332 9.184,46.393 9.387,46.393C9.698,46.393 10.002,46.249 10.199,45.979C10.522,45.532 10.422,44.907 9.974,44.583C8.189,43.292 7.23,41.973 7.125,40.664C7.114,40.528 7.115,40.39 7.123,40.252C7.055,40.348 6.989,40.445 6.907,40.531C6.4,41.054 5.906,41.603 5.426,42.164C5.931,43.589 7.058,44.943 8.802,46.204Z" style="fill:rgb(234,196,148);fill-rule:nonzero;"/>
                    </g>
                </g>
            </g>
        </g>
        <g id="milk" transform="matrix(1.46385,1.42178,-1.42178,1.46385,895.132,407.568)">
            <g transform="matrix(1,0,0,1,-28.5,-28.5)">
                <clipPath id="_clip4">
                    <rect x="0" y="0" width="57" height="57"/>
                </clipPath>
                <g clip-path="url(#_clip4)">
                    <g>
                        <path d="M26,57L12,51L12,18L26,23L26,57Z" style="fill:rgb(198,198,198);fill-rule:nonzero;"/>
                        <path d="M45,52L26,57L26,23L45,18L45,52Z" style="fill:rgb(230,230,230);fill-rule:nonzero;"/>
                        <path d="M38,4L19,8L19,4L38,0L38,4Z" style="fill:rgb(226,226,226);fill-rule:nonzero;"/>
                        <path d="M26,23L12,18L19,8L26,23Z" style="fill:rgb(209,209,209);fill-rule:nonzero;"/>
                        <path d="M45,18L26,23L19,8L38,4L45,18Z" style="fill:rgb(234,234,234);fill-rule:nonzero;"/>
                        <path d="M45,37L26,52L26,37L45,21L45,37Z" style="fill:rgb(61,171,239);fill-rule:nonzero;"/>
                        <path d="M12,46L26,52L26,37L12,31L12,46Z" style="fill:rgb(43,157,214);fill-rule:nonzero;"/>
                        <path d="M34.215,16.875C31.998,17.455 31.259,15.452 30.91,14.122C30.562,12.792 30.226,10.683 32.443,10.103C34.66,9.523 35.399,11.526 35.747,12.856C36.095,14.186 36.432,16.295 34.215,16.875Z" style="fill:white;fill-rule:nonzero;"/>
                        <path d="M34,4.842L36,4.421L36,0.421L34,0.842L34,4.842Z" style="fill:rgb(237,237,237);fill-rule:nonzero;"/>
                        <path d="M30,5.684L32,5.263L32,1.263L30,1.684L30,5.684Z" style="fill:rgb(237,237,237);fill-rule:nonzero;"/>
                        <path d="M26,6.526L28,6.105L28,2.105L26,2.526L26,6.526Z" style="fill:rgb(237,237,237);fill-rule:nonzero;"/>
                        <path d="M22,7.368L24,6.947L24,2.947L22,3.368L22,7.368Z" style="fill:rgb(237,237,237);fill-rule:nonzero;"/>
                    </g>
                </g>
            </g>
        </g>
        <g id="doughnut" transform="matrix(1.73591,0,0,1.73591,580.775,59.2361)">
            <g transform="matrix(1,0,0,1,-28.504,-28.504)">
                <clipPath id="_clip5">
                    <rect x="0" y="0" width="57.008" height="57.008"/>
                </clipPath>
                <g clip-path="url(#_clip5)">
                    <g>
                        <path d="M57,24.004L56.923,24.004C56.923,12.958 44.163,4.004 28.423,4.004C12.683,4.004 0,12.958 0,24.004C0,24.004 0.016,33.44 0.016,33.442C0.016,44.488 12.683,53.005 28.424,53.005C44.165,53.005 57.009,44.082 57.009,33.036C57.008,33.034 57,24.004 57,24.004ZM29,29.004C24.476,29.004 20.658,27.2 19.423,24.727C22.095,23.525 25.403,22.804 29,22.804C32.597,22.804 35.905,23.525 38.577,24.727C37.342,27.2 33.524,29.004 29,29.004Z" style="fill:rgb(251,212,144);fill-rule:nonzero;"/>
                        <path d="M0,24.004C0,24.004 0.006,27.831 0.011,30.612C0.068,31.386 0.712,32.004 1.5,32.004C2.27,32.004 2.902,31.414 2.984,30.665C2.989,30.671 2.995,30.677 3,30.682L3,35.503C3,36.328 3.675,37.003 4.5,37.003C5.325,37.003 6,36.328 6,35.503L6,39.503C6,40.328 6.675,41.003 7.5,41.003C8.325,41.003 9,40.328 9,39.503L9,37.503C9,38.328 9.675,39.003 10.5,39.003C11.325,39.003 12,38.328 12,37.503L12,42.503C12,43.328 12.675,44.003 13.5,44.003C14.325,44.003 15,43.328 15,42.503L15,40.503C15,41.328 15.675,42.003 16.5,42.003C17.325,42.003 18,41.328 18,40.503L18,44.003C18,45.103 18.9,46.003 20,46.003C21.1,46.003 22,45.103 22,44.003L22,42.503C22,43.328 22.675,44.003 23.5,44.003C24.325,44.003 25,43.328 25,42.503L25,46.003C25,47.103 25.9,48.003 27,48.003C28.1,48.003 29,47.103 29,46.003L29,42.003C29,43.103 29.9,44.003 31,44.003C32.1,44.003 33,43.103 33,42.003L33,43.503C33,44.328 33.675,45.003 34.5,45.003C35.325,45.003 36,44.328 36,43.503L36,40.003C36,41.103 36.9,42.003 38,42.003C39.1,42.003 40,41.103 40,40.003L40,43.503C40,44.328 40.675,45.003 41.5,45.003C42.325,45.003 43,44.328 43,43.503L43,38.503C43,39.328 43.675,40.003 44.5,40.003C45.325,40.003 46,39.328 46,38.503L46,39.503C46,40.328 46.675,41.003 47.5,41.003C48.325,41.003 49,40.328 49,39.503L49,35.503C49,36.328 49.675,37.003 50.5,37.003C51.325,37.003 52,36.328 52,35.503L52,32.503C52,33.328 52.676,34.035 53.5,34.003C56.427,33.888 56.964,30.116 57.003,27.182C57.003,26.864 57.002,26.557 57.002,26.266C56.984,25.236 56.923,24.397 56.923,24.003C56.923,12.957 44.163,4.003 28.423,4.003C12.683,4.003 0,12.958 0,24.004ZM29,22.804C32.597,22.804 35.905,23.525 38.577,24.727C37.342,27.2 33.524,29.004 29,29.004C24.476,29.004 20.658,27.2 19.423,24.727C22.095,23.525 25.403,22.804 29,22.804Z" style="fill:rgb(216,92,129);fill-rule:nonzero;"/>
                        <path d="M29.088,17.004C23.565,17.004 19.088,19.69 19.088,23.004C19.088,23.603 19.249,24.177 19.523,24.722C22.193,23.523 25.496,22.804 29.088,22.804C32.68,22.804 35.982,23.523 38.653,24.722C38.927,24.177 39.088,23.603 39.088,23.004C39.088,19.69 34.611,17.004 29.088,17.004Z" style="fill:rgb(251,212,144);fill-rule:nonzero;"/>
                        <path d="M12.476,28.588C12.035,28.588 11.632,28.295 11.511,27.849C11.367,27.317 11.682,26.767 12.215,26.623L16.532,25.455C17.063,25.305 17.615,25.625 17.759,26.159C17.903,26.691 17.588,27.241 17.055,27.385L12.738,28.553C12.65,28.577 12.562,28.588 12.476,28.588Z" style="fill:rgb(164,232,105);fill-rule:nonzero;"/>
                        <path d="M28.301,36.075C28.197,36.075 28.09,36.058 27.985,36.023L24.985,35.023C24.461,34.849 24.178,34.283 24.353,33.758C24.528,33.235 25.093,32.949 25.618,33.126L28.618,34.126C29.142,34.3 29.425,34.866 29.25,35.391C29.11,35.81 28.72,36.075 28.301,36.075Z" style="fill:white;fill-rule:nonzero;"/>
                        <path d="M47.635,28.904C47.083,28.904 46.635,28.457 46.635,27.904L46.635,23.904C46.635,23.351 47.083,22.904 47.635,22.904C48.187,22.904 48.635,23.351 48.635,23.904L48.635,27.904C48.635,28.457 48.187,28.904 47.635,28.904Z" style="fill:rgb(164,232,105);fill-rule:nonzero;"/>
                        <path d="M24.042,12.514C23.768,12.514 23.495,12.402 23.298,12.182L21.184,9.829C20.815,9.419 20.849,8.786 21.259,8.417C21.67,8.05 22.303,8.083 22.671,8.493L24.785,10.846C25.154,11.256 25.12,11.889 24.71,12.258C24.519,12.429 24.28,12.514 24.042,12.514Z" style="fill:rgb(72,160,220);fill-rule:nonzero;"/>
                        <path d="M49.868,18.504C49.764,18.504 49.657,18.487 49.552,18.452L46.552,17.452C46.028,17.278 45.745,16.712 45.92,16.187C46.094,15.664 46.66,15.378 47.185,15.555L50.185,16.555C50.709,16.729 50.992,17.295 50.817,17.82C50.677,18.239 50.287,18.504 49.868,18.504Z" style="fill:rgb(72,160,220);fill-rule:nonzero;"/>
                        <path d="M35.927,33.262C35.907,33.262 35.887,33.261 35.867,33.26C35.316,33.228 34.895,32.754 34.928,32.203L35.011,30.792C35.043,30.24 35.519,29.829 36.068,29.853C36.619,29.885 37.04,30.359 37.007,30.91L36.924,32.321C36.893,32.852 36.453,33.262 35.927,33.262Z" style="fill:rgb(164,232,105);fill-rule:nonzero;"/>
                        <path d="M43.801,35.575C43.545,35.575 43.289,35.477 43.094,35.282L42.094,34.282C41.703,33.891 41.703,33.259 42.094,32.868C42.485,32.477 43.117,32.477 43.508,32.868L44.508,33.868C44.899,34.259 44.899,34.891 44.508,35.282C44.313,35.477 44.057,35.575 43.801,35.575Z" style="fill:rgb(215,90,74);fill-rule:nonzero;"/>
                        <path d="M15.635,36.075C15.379,36.075 15.123,35.977 14.928,35.782L13.928,34.782C13.537,34.391 13.537,33.759 13.928,33.368C14.319,32.977 14.951,32.977 15.342,33.368L16.342,34.368C16.733,34.759 16.733,35.391 16.342,35.782C16.146,35.977 15.891,36.075 15.635,36.075Z" style="fill:rgb(72,160,220);fill-rule:nonzero;"/>
                        <path d="M43.831,13.544C43.299,13.544 42.856,13.124 42.833,12.588L42.771,11.175C42.747,10.623 43.175,10.156 43.727,10.132C44.273,10.109 44.746,10.536 44.769,11.087L44.831,12.5C44.855,13.052 44.427,13.519 43.875,13.543C43.861,13.544 43.846,13.544 43.831,13.544Z" style="fill:rgb(164,232,105);fill-rule:nonzero;"/>
                        <g>
                            <path d="M11.948,13.759L12.948,17.759" style="fill:none;fill-rule:nonzero;"/>
                            <path d="M12.947,18.759C12.499,18.759 12.092,18.456 11.978,18.001L10.978,14.001C10.844,13.466 11.17,12.923 11.706,12.789C12.243,12.654 12.785,12.979 12.919,13.517L13.919,17.517C14.053,18.052 13.727,18.595 13.191,18.729C13.109,18.749 13.028,18.759 12.947,18.759Z" style="fill:rgb(215,90,74);fill-rule:nonzero;"/>
                        </g>
                        <path d="M8.135,24.304C7.879,24.304 7.623,24.206 7.428,24.011L6.428,23.011C6.037,22.62 6.037,21.988 6.428,21.597C6.819,21.206 7.451,21.206 7.842,21.597L8.842,22.597C9.233,22.988 9.233,23.62 8.842,24.011C8.646,24.206 8.391,24.304 8.135,24.304Z" style="fill:rgb(251,212,144);fill-rule:nonzero;"/>
                        <path d="M36.968,13.337C36.712,13.337 36.456,13.239 36.261,13.044L35.261,12.044C34.87,11.653 34.87,11.021 35.261,10.63C35.652,10.239 36.284,10.239 36.675,10.63L37.675,11.63C38.066,12.021 38.066,12.653 37.675,13.044C37.479,13.239 37.224,13.337 36.968,13.337Z" style="fill:rgb(215,90,74);fill-rule:nonzero;"/>
                    </g>
                </g>
            </g>
        </g>
        <g id="sandwich" transform="matrix(1.52584,-1.83315,1.83315,1.52584,751.938,73.7809)">
            <g transform="matrix(1,0,0,1,-28.75,-28.75)">
                <clipPath id="_clip6">
                    <rect x="0" y="0" width="57.5" height="57.5"/>
                </clipPath>
                <g clip-path="url(#_clip6)">
                    <g>
                        <path d="M52.489,34.154C51.858,34.248 51.192,34.3 50.5,34.3C48.664,34.3 47.003,33.941 45.756,33.363C44.507,33.942 42.839,34.3 41,34.3C38.766,34.3 36.782,33.775 35.5,32.96C34.218,33.775 32.234,34.3 30,34.3C27.449,34.3 25.223,33.615 24,32.596C22.777,33.615 20.551,34.3 18,34.3C15.766,34.3 13.782,33.775 12.5,32.96C11.218,33.775 9.234,34.3 7,34.3C6.118,34.3 5.277,34.215 4.5,34.066L4.5,34.8C4.5,38.942 7.858,42.3 12,42.3L45,42.3C49.142,42.3 52.5,38.942 52.5,34.8C52.5,34.687 52.488,34.577 52.483,34.466C52.485,34.448 52.487,34.317 52.489,34.154Z" style="fill:rgb(238,175,75);fill-rule:nonzero;"/>
                        <path d="M52.485,27.445C52.409,28.477 51.55,29.3 50.5,29.3L47.315,29.3C47.75,29.755 48,30.262 48,30.8C48,31.814 47.133,32.724 45.756,33.363C47.003,33.942 48.664,34.3 50.5,34.3C54.366,34.3 57.5,32.733 57.5,30.8C57.5,29.212 55.383,27.873 52.485,27.445Z" style="fill:rgb(122,55,38);fill-rule:nonzero;"/>
                        <path d="M36.298,29.3C36.735,29.756 37,30.26 37,30.8C37,31.616 36.437,32.365 35.5,32.96C36.782,33.775 38.766,34.3 41,34.3C44.866,34.3 48,32.733 48,30.8C48,30.262 47.75,29.755 47.317,29.3L36.298,29.3Z" style="fill:rgb(197,100,88);fill-rule:nonzero;"/>
                        <path d="M52.5,22.8C52.5,18.658 49.142,15.3 45,15.3C42.824,15.3 40.87,16.233 39.5,17.713C38.13,16.232 36.176,15.3 34,15.3C31.824,15.3 29.87,16.233 28.5,17.713C27.13,16.232 25.176,15.3 23,15.3C20.824,15.3 18.87,16.233 17.5,17.713C16.13,16.232 14.176,15.3 12,15.3C7.858,15.3 4.5,18.658 4.5,22.8C4.5,22.913 4.512,23.023 4.517,23.134C4.512,23.19 4.5,23.243 4.5,23.3L4.5,27.3C4.5,28.4 5.4,29.3 6.5,29.3L50.5,29.3C51.6,29.3 52.5,28.4 52.5,27.3L52.5,23.3C52.5,23.243 52.488,23.19 52.483,23.134C52.488,23.022 52.5,22.913 52.5,22.8Z" style="fill:rgb(238,175,75);fill-rule:nonzero;"/>
                        <path d="M6.5,29.3C5.479,29.3 4.639,28.521 4.523,27.53C1.882,28.03 0,29.303 0,30.8C0,32.733 3.134,34.3 7,34.3C10.866,34.3 14,32.733 14,30.8C14,30.262 13.75,29.755 13.317,29.3L6.5,29.3Z" style="fill:rgb(122,55,38);fill-rule:nonzero;"/>
                        <path d="M13.298,29.3C13.735,29.756 14,30.26 14,30.8C14,31.616 13.437,32.365 12.5,32.96C13.782,33.775 15.766,34.3 18,34.3C21.866,34.3 25,32.733 25,30.8C25,30.262 24.75,29.755 24.317,29.3L13.298,29.3Z" style="fill:rgb(197,100,88);fill-rule:nonzero;"/>
                        <path d="M24.305,29.3C24.742,29.755 25,30.261 25,30.8C25,31.458 24.631,32.07 24,32.596C25.223,33.615 27.449,34.3 30,34.3C33.866,34.3 37,32.733 37,30.8C37,30.262 36.75,29.755 36.317,29.3L24.305,29.3Z" style="fill:rgb(122,55,38);fill-rule:nonzero;"/>
                        <circle cx="11" cy="37.3" r="1" style="fill:rgb(251,212,144);"/>
                        <circle cx="16" cy="39.3" r="1" style="fill:rgb(251,212,144);"/>
                        <circle cx="20" cy="37.3" r="1" style="fill:rgb(251,212,144);"/>
                        <circle cx="23" cy="39.3" r="1" style="fill:rgb(251,212,144);"/>
                        <circle cx="27" cy="37.3" r="1" style="fill:rgb(251,212,144);"/>
                        <circle cx="31" cy="39.3" r="1" style="fill:rgb(251,212,144);"/>
                        <circle cx="35" cy="36.3" r="1" style="fill:rgb(251,212,144);"/>
                        <circle cx="38" cy="39.3" r="1" style="fill:rgb(251,212,144);"/>
                        <circle cx="43" cy="37.3" r="1" style="fill:rgb(251,212,144);"/>
                        <circle cx="47" cy="38.3" r="1" style="fill:rgb(251,212,144);"/>
                        <path d="M15.921,24.7C15.368,24.7 14.921,24.253 14.921,23.7C14.921,19.013 18.734,15.2 23.421,15.2C23.974,15.2 24.421,15.647 24.421,16.2C24.421,16.753 23.974,17.2 23.421,17.2C19.837,17.2 16.921,20.116 16.921,23.7C16.921,24.253 16.474,24.7 15.921,24.7Z" style="fill:rgb(251,212,144);fill-rule:nonzero;"/>
                        <path d="M26.5,24.797C25.947,24.797 25.5,24.35 25.5,23.797C25.5,19.11 29.313,15.297 34,15.297C34.553,15.297 35,15.744 35,16.297C35,16.85 34.553,17.297 34,17.297C30.416,17.297 27.5,20.213 27.5,23.797C27.5,24.35 27.053,24.797 26.5,24.797Z" style="fill:rgb(251,212,144);fill-rule:nonzero;"/>
                        <g>
                            <path d="M37.5,23.797C37.5,19.655 40.858,16.297 45,16.297" style="fill:rgb(238,175,75);fill-rule:nonzero;"/>
                            <path d="M37.5,24.797C36.947,24.797 36.5,24.35 36.5,23.797C36.5,19.11 40.313,15.297 45,15.297C45.553,15.297 46,15.744 46,16.297C46,16.85 45.553,17.297 45,17.297C41.416,17.297 38.5,20.213 38.5,23.797C38.5,24.35 38.053,24.797 37.5,24.797Z" style="fill:rgb(251,212,144);fill-rule:nonzero;"/>
                        </g>
                        <path d="M14.5,27.3C14.3,27.3 14.108,27.318 13.922,27.344C13.728,26.74 13.168,26.3 12.5,26.3C12.302,26.3 12.115,26.34 11.942,26.41C11.769,25.772 11.192,25.3 10.5,25.3C9.822,25.3 9.255,25.753 9.07,26.371C8.886,26.328 8.697,26.3 8.5,26.3C7.967,26.3 7.475,26.47 7.069,26.754C6.639,26.474 6.098,26.3 5.5,26.3C4.119,26.3 3,27.195 3,28.3C3,29.404 4.119,30.3 5.5,30.3C5.821,30.3 6.125,30.247 6.406,30.159C6.852,30.844 7.621,31.3 8.5,31.3C8.988,31.3 9.441,31.154 9.826,30.912C10.156,31.153 10.56,31.3 11,31.3C11.88,31.3 12.62,30.727 12.887,29.937C13.323,30.16 13.882,30.3 14.5,30.3C15.881,30.3 17,29.628 17,28.8C17,27.972 15.881,27.3 14.5,27.3Z" style="fill:rgb(136,192,87);fill-rule:nonzero;"/>
                        <path d="M26.5,27.3C26.3,27.3 26.108,27.318 25.922,27.344C25.728,26.74 25.168,26.3 24.5,26.3C24.302,26.3 24.115,26.34 23.942,26.41C23.769,25.772 23.192,25.3 22.5,25.3C21.822,25.3 21.255,25.753 21.07,26.371C20.886,26.328 20.697,26.3 20.5,26.3C19.967,26.3 19.475,26.47 19.069,26.754C18.639,26.474 18.098,26.3 17.5,26.3C16.119,26.3 15,27.195 15,28.3C15,29.404 16.119,30.3 17.5,30.3C17.821,30.3 18.125,30.247 18.406,30.159C18.852,30.844 19.621,31.3 20.5,31.3C20.988,31.3 21.441,31.154 21.826,30.912C22.156,31.153 22.56,31.3 23,31.3C23.88,31.3 24.62,30.727 24.887,29.937C25.323,30.16 25.882,30.3 26.5,30.3C27.881,30.3 29,29.628 29,28.8C29,27.972 27.881,27.3 26.5,27.3Z" style="fill:rgb(136,192,87);fill-rule:nonzero;"/>
                        <path d="M39.5,27.3C39.3,27.3 39.108,27.318 38.922,27.344C38.728,26.74 38.168,26.3 37.5,26.3C37.302,26.3 37.115,26.34 36.942,26.41C36.769,25.772 36.192,25.3 35.5,25.3C34.822,25.3 34.255,25.753 34.07,26.371C33.886,26.328 33.697,26.3 33.5,26.3C32.967,26.3 32.475,26.47 32.069,26.754C31.639,26.474 31.098,26.3 30.5,26.3C29.119,26.3 28,27.195 28,28.3C28,29.404 29.119,30.3 30.5,30.3C30.821,30.3 31.125,30.247 31.406,30.159C31.852,30.844 32.621,31.3 33.5,31.3C33.988,31.3 34.441,31.154 34.826,30.912C35.156,31.153 35.56,31.3 36,31.3C36.88,31.3 37.62,30.727 37.887,29.937C38.323,30.16 38.882,30.3 39.5,30.3C40.881,30.3 42,29.628 42,28.8C42,27.972 40.881,27.3 39.5,27.3Z" style="fill:rgb(136,192,87);fill-rule:nonzero;"/>
                        <path d="M52.5,27.3C52.3,27.3 52.108,27.318 51.922,27.344C51.728,26.74 51.168,26.3 50.5,26.3C50.302,26.3 50.115,26.34 49.942,26.41C49.769,25.772 49.192,25.3 48.5,25.3C47.822,25.3 47.255,25.753 47.07,26.371C46.886,26.328 46.697,26.3 46.5,26.3C45.967,26.3 45.475,26.47 45.069,26.754C44.639,26.474 44.098,26.3 43.5,26.3C42.119,26.3 41,27.195 41,28.3C41,29.404 42.119,30.3 43.5,30.3C43.821,30.3 44.125,30.247 44.406,30.159C44.852,30.844 45.621,31.3 46.5,31.3C46.988,31.3 47.441,31.154 47.826,30.912C48.156,31.153 48.56,31.3 49,31.3C49.88,31.3 50.62,30.727 50.887,29.937C51.323,30.16 51.882,30.3 52.5,30.3C53.881,30.3 55,29.628 55,28.8C55,27.972 53.881,27.3 52.5,27.3Z" style="fill:rgb(136,192,87);fill-rule:nonzero;"/>
                    </g>
                </g>
            </g>
        </g>
        <g id="salad" transform="matrix(0.383965,-2.32332,2.32332,0.383965,478.3,410.383)">
            <g transform="matrix(1,0,0,1,-27.7845,-27.7845)">
                <clipPath id="_clip7">
                    <rect x="0" y="0" width="55.569" height="55.569"/>
                </clipPath>
                <g clip-path="url(#_clip7)">
                    <g>
                        <path d="M41.971,27.098C43.522,27.466 45.217,27.458 47.025,26.695C50.133,25.384 52.343,22.403 52.412,19.03C52.49,15.252 50.093,12.03 46.735,10.852C46.499,7.422 43.649,4.712 40.16,4.712C40.15,4.712 40.14,4.713 40.13,4.713C40.192,4.194 40.157,3.645 39.989,3.072C39.517,1.462 38.102,0.227 36.436,0.029C35.07,-0.133 33.816,0.356 32.937,1.225C32.103,0.472 31.007,0 29.792,0C27.189,0 25.079,2.11 25.079,4.713C25.079,4.721 25.081,4.729 25.081,4.737C21.917,4.977 19.423,7.615 19.423,10.84C19.423,11.333 19.487,11.81 19.597,12.269C15.831,12.426 12.824,15.519 12.824,19.323C12.824,20.612 13.174,21.816 13.777,22.857C12.62,23.808 11.882,25.25 11.882,26.864C11.882,29.121 13.327,31.036 15.341,31.748C15.081,40.965 18.37,46.403 24.733,53.728C24.847,53.859 24.962,53.991 25.078,54.122C25.103,54.15 25.128,54.178 25.153,54.206C27.799,57.175 33.767,54.901 32.483,51.137C25.628,31.027 46.758,33.934 46.758,33.934C46.758,33.934 47.362,27.851 41.911,27.566C41.918,27.414 41.925,27.261 41.932,27.109C41.946,27.106 41.957,27.101 41.971,27.098Z" style="fill:rgb(136,192,87);fill-rule:nonzero;"/>
                        <path d="M25.154,54.206C25.129,54.178 25.104,54.15 25.079,54.122C24.963,53.991 24.848,53.86 24.734,53.728C18.37,46.403 15.081,40.965 15.342,31.748C13.328,31.036 11.883,29.121 11.883,26.864C11.883,25.249 12.621,23.808 13.778,22.857C13.176,21.816 12.825,20.612 12.825,19.323C12.825,15.519 15.832,12.425 19.598,12.269C19.488,11.81 19.424,11.333 19.424,10.84C19.424,8.278 21,6.092 23.233,5.178C23.085,4.693 22.897,4.204 22.65,3.715C21.418,1.274 19.25,-0.259 17.271,0.063C15.64,0.328 14.499,1.659 14.008,3.449C12.64,2.528 11.122,2.17 9.751,2.653C6.812,3.688 5.885,7.914 7.568,11.828C7.573,11.84 7.58,11.85 7.585,11.862C4.399,13.384 3.552,17.909 5.572,21.991C5.867,22.586 6.21,23.133 6.584,23.638C3.065,25.093 2.136,29.511 4.352,33.372C5.06,34.606 6.006,35.622 7.058,36.389C6.56,37.58 6.668,39.045 7.46,40.397C8.523,42.213 10.518,43.291 12.386,43.278C15.669,49.725 19.697,52.226 25.796,54.814C25.86,54.841 25.924,54.868 25.988,54.894C25.688,54.704 25.403,54.486 25.154,54.206Z" style="fill:rgb(101,156,53);fill-rule:nonzero;"/>
                        <path d="M27.545,24.419C27.603,24.291 27.63,24.157 27.632,24.025C28.349,22.221 29.212,20.707 30.11,19.444C34.594,18.512 37.977,19.913 38.052,19.945C38.183,20.003 38.319,20.029 38.451,20.029C38.836,20.029 39.203,19.805 39.368,19.431C39.59,18.925 39.359,18.335 38.854,18.113C38.715,18.053 35.956,16.875 31.989,17.164C33.927,15.143 35.628,14.226 35.882,14.098C37.335,13.402 39.458,14.302 40.155,14.708C40.314,14.802 40.488,14.846 40.661,14.846C41.003,14.846 41.337,14.67 41.523,14.354C41.803,13.878 41.646,13.266 41.169,12.985C41.055,12.917 38.807,11.618 36.504,11.879C36.701,11.068 37.138,10.33 37.361,10.034C37.696,9.596 37.612,8.969 37.173,8.634C36.736,8.299 36.107,8.381 35.772,8.821C35.709,8.902 34.397,10.642 34.4,12.645C32.945,13.536 29.186,16.237 26.556,21.665C26.414,21.957 26.277,22.271 26.141,22.586C23.413,20.721 23.862,17.403 23.887,17.242C23.972,16.698 23.601,16.187 23.056,16.1C22.512,16.013 21.998,16.385 21.911,16.93C21.621,18.745 22.037,22.485 25.406,24.494C24.662,26.682 24.098,29.294 23.924,32.377C23.904,32.474 23.9,32.568 23.908,32.664C23.804,34.825 23.904,37.222 24.252,39.847C22.984,39.149 22.404,38.128 22.367,38.059C22.106,37.574 21.504,37.389 21.018,37.645C20.53,37.902 20.341,38.507 20.599,38.996C20.652,39.097 21.849,41.31 24.616,42.165C25.337,46.121 26.622,50.563 28.7,55.548C29.385,55.503 30.052,55.322 30.642,55.028C30.639,55.02 30.64,55.011 30.637,55.002C28.456,49.813 27.14,45.242 26.44,41.203C26.436,41.179 26.434,41.156 26.429,41.133C25.909,38.103 25.74,35.38 25.838,32.941C27.238,30.554 31.353,30.458 31.395,30.457C31.947,30.448 32.388,29.995 32.38,29.443C32.372,28.895 31.927,28.457 31.381,28.457L31.369,28.457C31.206,28.459 28.355,28.521 26.093,29.939C26.369,27.959 26.828,26.205 27.397,24.647C27.456,24.578 27.507,24.503 27.545,24.419Z" style="fill:rgb(101,156,53);fill-rule:nonzero;"/>
                    </g>
                </g>
            </g>
        </g>
        <g id="avocado" transform="matrix(0.518761,-2.23653,2.23653,0.518761,206.864,209.988)">
            <g transform="matrix(1,0,0,1,-25.8965,-25.8965)">
                <clipPath id="_clip8">
                    <rect x="0" y="0" width="51.793" height="51.793"/>
                </clipPath>
                <g clip-path="url(#_clip8)">
                    <g>
                        <path d="M40.876,5.316C40.663,5.316 40.448,5.248 40.267,5.108C39.829,4.771 39.748,4.143 40.085,3.706C41.441,1.945 43.274,0.708 45.245,0.223C47.3,-0.282 49.26,0.079 50.767,1.241C51.205,1.578 51.286,2.206 50.949,2.643C50.611,3.08 49.983,3.161 49.547,2.825C48.531,2.042 47.175,1.81 45.723,2.165C44.191,2.542 42.75,3.523 41.669,4.927C41.473,5.182 41.176,5.316 40.876,5.316Z" style="fill:rgb(76,49,44);fill-rule:nonzero;"/>
                        <path d="M6.914,49.048C-1.191,43.264 -0.864,32.008 4.567,23.19C6.552,19.967 9.272,17.259 12.352,15.059L26.934,4.643C30.75,1.338 35.193,0.431 39.445,3.466C43.698,6.5 44.284,10.997 42.4,15.68L37.29,32.856C36.211,36.484 34.534,39.936 32.131,42.861C25.557,50.864 15.019,54.832 6.914,49.048Z" style="fill:rgb(67,107,28);fill-rule:nonzero;"/>
                        <path d="M9.582,45.309C3.625,41.057 4.47,31.934 9.132,24.515C10.836,21.803 13.08,19.469 15.576,17.527L23.467,12.487C25.89,10.94 28.281,9.334 30.517,7.527C32.743,5.727 34.667,4.969 37.123,6.722C39.641,8.519 39.494,10.655 38.45,13.451C37.798,15.199 37.226,16.981 36.785,18.793L33.907,30.61C32.882,33.602 31.404,36.483 29.393,38.976C23.892,45.796 15.54,49.561 9.582,45.309Z" style="fill:rgb(249,234,128);fill-rule:nonzero;"/>
                        <path d="M24.024,37.754C21.192,41.723 16.214,43.027 12.907,40.666C9.6,38.306 9.215,33.175 12.047,29.206C14.879,25.237 22.421,20.341 25.728,22.701C29.035,25.061 26.856,33.785 24.024,37.754Z" style="fill:rgb(164,111,62);fill-rule:nonzero;"/>
                        <circle cx="13.868" cy="35.044" r="1.5" style="fill:rgb(220,150,40);"/>
                        <circle cx="17.894" cy="31.837" r="1.5" style="fill:rgb(220,150,40);"/>
                        <circle cx="18.307" cy="37.344" r="1.5" style="fill:rgb(220,150,40);"/>
                    </g>
                </g>
            </g>
        </g>
        <g id="pineapple" transform="matrix(1.3514,-1.69146,1.69146,1.3514,140.826,368.047)">
            <g transform="matrix(1,0,0,1,-28.53,-28.53)">
                <clipPath id="_clip9">
                    <rect x="0" y="0" width="57.06" height="57.06"/>
                </clipPath>
                <g clip-path="url(#_clip9)">
                    <g>
                        <path d="M28.758,19.06C44.816,19.06 44.702,27.567 44.702,38.06C44.702,48.553 37.563,57.06 28.758,57.06L28.302,57.06C19.496,57.06 12.358,48.553 12.358,38.06C12.358,27.567 12.244,19.06 28.302,19.06" style="fill:rgb(214,165,80);fill-rule:nonzero;"/>
                        <path d="M32.51,13.389C33.025,12.745 33.605,12.143 34.238,11.619C35.029,7.059 40.472,3.341 44.357,2.339C44.357,2.339 41.039,-0.421 36.924,0.055C32.66,0.548 30.236,2.639 28.869,5.111C31.75,7.361 32.429,10.904 32.51,13.389Z" style="fill:rgb(136,192,87);fill-rule:nonzero;"/>
                        <path d="M23.255,19.411C24.731,19.183 26.4,19.06 28.303,19.06L28.359,19.06C28.359,19.06 28.526,14.018 23.359,13.06C18.192,12.102 17.359,15.06 17.359,15.06C21.825,16.131 22.963,18.321 23.255,19.411Z" style="fill:rgb(101,156,53);fill-rule:nonzero;"/>
                        <path d="M34.612,19.553C35.431,18.001 39.292,14.274 44.358,13.06C44.358,13.06 42.525,9.102 37.358,10.06C32.191,11.018 29.359,19.06 29.359,19.06C29.359,19.06 29.387,19.065 29.428,19.071C31.399,19.102 33.117,19.267 34.612,19.553Z" style="fill:rgb(101,156,53);fill-rule:nonzero;"/>
                        <path d="M25.988,14.156C28.248,15.808 28.355,18.555 28.358,18.994C28.693,19.01 29.037,19.008 29.383,18.994C29.528,18.599 30.404,16.312 31.948,14.135C32.007,14.02 32.067,13.931 32.129,13.893C32.203,13.792 32.281,13.692 32.357,13.592C32.409,13.525 32.457,13.456 32.511,13.389C32.392,9.763 31.005,3.882 23.358,3.06C19.483,2.643 16.358,5.06 16.358,5.06C20.309,6.007 25.983,9.727 25.988,14.156Z" style="fill:rgb(164,232,105);fill-rule:nonzero;"/>
                        <g>
                            <path d="M21.358,44.646L17.651,48.353L19.065,49.767L21.358,47.474L23.651,49.767L25.065,48.353L21.358,44.646Z" style="fill:rgb(244,196,78);fill-rule:nonzero;"/>
                            <path d="M24.651,53.353L26.065,54.767L28.358,52.474L30.651,54.767L32.065,53.353L28.358,49.646L24.651,53.353Z" style="fill:rgb(244,196,78);fill-rule:nonzero;"/>
                            <path d="M31.651,48.353L33.065,49.767L35.358,47.474L37.651,49.767L39.065,48.353L35.358,44.646L31.651,48.353Z" style="fill:rgb(244,196,78);fill-rule:nonzero;"/>
                            <path d="M19.065,41.767L21.358,39.474L23.651,41.767L25.065,40.353L21.358,36.646L17.651,40.353L19.065,41.767Z" style="fill:rgb(244,196,78);fill-rule:nonzero;"/>
                            <path d="M28.358,43.474L30.651,45.767L32.065,44.353L28.358,40.646L24.651,44.353L26.065,45.767L28.358,43.474Z" style="fill:rgb(244,196,78);fill-rule:nonzero;"/>
                            <path d="M14.498,40.646L12.791,42.353L14.205,43.767L14.498,43.474L16.791,45.767L18.205,44.353L14.498,40.646Z" style="fill:rgb(244,196,78);fill-rule:nonzero;"/>
                            <path d="M35.358,39.474L37.651,41.767L39.065,40.353L35.358,36.646L31.651,40.353L33.065,41.767L35.358,39.474Z" style="fill:rgb(244,196,78);fill-rule:nonzero;"/>
                            <path d="M17.651,32.353L19.065,33.767L21.358,31.474L23.651,33.767L25.065,32.353L21.358,28.646L17.651,32.353Z" style="fill:rgb(244,196,78);fill-rule:nonzero;"/>
                            <path d="M28.358,35.474L30.651,37.767L32.065,36.353L28.358,32.646L24.651,36.353L26.065,37.767L28.358,35.474Z" style="fill:rgb(244,196,78);fill-rule:nonzero;"/>
                            <path d="M35.358,28.646L31.651,32.353L33.065,33.767L35.358,31.474L37.651,33.767L39.065,32.353L35.358,28.646Z" style="fill:rgb(244,196,78);fill-rule:nonzero;"/>
                            <path d="M21.358,23.474L23.651,25.767L25.065,24.353L21.358,20.646L17.651,24.353L19.065,25.767L21.358,23.474Z" style="fill:rgb(244,196,78);fill-rule:nonzero;"/>
                            <path d="M26.065,29.767L28.358,27.474L30.651,29.767L32.065,28.353L28.358,24.646L24.651,28.353L26.065,29.767Z" style="fill:rgb(244,196,78);fill-rule:nonzero;"/>
                            <path d="M35.358,23.474L37.651,25.767L39.065,24.353L35.358,20.646L31.651,24.353L33.065,25.767L35.358,23.474Z" style="fill:rgb(244,196,78);fill-rule:nonzero;"/>
                            <path d="M43.212,25.538L42.513,24.49L38.651,28.353L40.065,29.767L42.203,27.63L43.526,29.615L44.258,29.127C44.038,27.833 43.705,26.631 43.212,25.538Z" style="fill:rgb(244,196,78);fill-rule:nonzero;"/>
                            <path d="M42.16,40.843L38.65,44.353L40.064,45.767L42.554,43.277L43.909,43.955C44.089,43.299 44.245,42.632 44.365,41.947L42.16,40.843Z" style="fill:rgb(244,196,78);fill-rule:nonzero;"/>
                            <path d="M14.23,24.774C13.847,25.467 13.542,26.212 13.3,27.002L14.065,27.767L14.358,27.474L16.651,29.767L18.065,28.353L14.358,24.646L14.23,24.774Z" style="fill:rgb(244,196,78);fill-rule:nonzero;"/>
                            <path d="M44.689,34.977L42.358,32.646L38.651,36.353L40.065,37.767L42.358,35.474L43.651,36.767L44.697,35.721C44.695,35.472 44.692,35.223 44.689,34.977Z" style="fill:rgb(244,196,78);fill-rule:nonzero;"/>
                            <path d="M12.378,34.626C12.37,35.1 12.364,35.578 12.361,36.063L13.065,36.767L14.358,35.474L16.651,37.767L18.065,36.353L14.358,32.646L12.378,34.626Z" style="fill:rgb(244,196,78);fill-rule:nonzero;"/>
                        </g>
                    </g>
                </g>
            </g>
        </g>
    </g>
</svg>
