<?xml version="1.0" encoding="UTF-8" standalone="no"?>
<!DOCTYPE svg PUBLIC "-//W3C//DTD SVG 1.1//EN" "http://www.w3.org/Graphics/SVG/1.1/DTD/svg11.dtd">
<svg width="100%" height="100%" viewBox="0 0 1000 1000" version="1.1" xmlns="http://www.w3.org/2000/svg" xmlns:xlink="http://www.w3.org/1999/xlink" xml:space="preserve" xmlns:serif="http://www.serif.com/" style="fill-rule:evenodd;clip-rule:evenodd;stroke-linejoin:round;stroke-miterlimit:2;">
    <g id="paper-bag" transform="matrix(0.532519,0,0,0.532519,207.05,544.251)">
        <g transform="matrix(1,0,0,1,-256,-256)">
            <clipPath id="_clip1">
                <rect x="0" y="0" width="512" height="512"/>
            </clipPath>
            <g clip-path="url(#_clip1)">
                <g>
                    <g>
                        <path d="M392.852,130.822C391.586,126.57 389.186,122.97 386.084,120.242C390.782,116.515 393.804,110.768 393.804,104.305C393.804,93.068 384.695,83.959 373.458,83.959C372.005,83.959 370.589,84.117 369.222,84.407C374.303,70.64 370.019,54.626 357.657,45.406C343.034,34.499 322.513,37.119 311.063,51.083C310.21,51.355 309.394,51.688 308.613,52.074C306.06,49.114 302.941,46.556 299.3,44.585C287.905,38.42 274.503,39.628 264.556,46.567C264.436,46.02 264.302,45.474 264.139,44.929C260.551,32.88 247.876,26.021 235.828,29.609C224.009,33.129 217.191,45.393 220.322,57.233C216.16,56.818 211.85,57.182 207.593,58.45C193.294,62.708 184.02,75.76 183.912,89.94C183.443,90.048 182.976,90.166 182.509,90.305C170.46,93.893 163.601,106.568 167.189,118.617C167.229,118.753 167.278,118.886 167.321,119.021C161.248,121.938 156.002,126.722 152.55,133.1C146.321,144.613 147.615,158.176 154.745,168.153C150.633,172.48 148.876,178.815 150.7,184.945C153.268,193.572 161.992,198.675 170.647,196.906C165.346,204.826 163.483,214.96 166.414,224.807C170.13,237.285 180.543,245.932 192.558,248.006C190.733,252.593 190.374,257.802 191.893,262.901C195.48,274.949 208.156,281.809 220.204,278.221C224.511,276.938 228.15,274.491 230.89,271.329C233.589,274.729 237.004,277.652 241.064,279.85C252.156,285.852 265.152,284.872 275.01,278.415C280.663,285.19 290.002,288.334 298.995,285.657C308.034,282.965 314.153,275.157 315.129,266.337C320.745,267.775 326.809,267.761 332.77,265.986C346.562,261.878 355.677,249.588 356.402,235.996C359.558,236.98 363.029,237.069 366.434,236.056C375.556,233.34 380.749,223.743 378.032,214.622C376.971,211.058 374.852,208.107 372.129,205.981C372.11,205.941 372.093,205.899 372.073,205.861C378.555,202.998 384.178,198.051 387.812,191.336C394.237,179.461 392.654,165.407 384.922,155.354C392.17,149.771 395.619,140.113 392.852,130.822Z" style="fill:rgb(117,179,87);fill-rule:nonzero;"/>
                        <path d="M392.852,130.822C391.586,126.57 389.186,122.97 386.084,120.242C390.782,116.515 393.804,110.768 393.804,104.305C393.804,93.068 384.695,83.959 373.458,83.959C372.005,83.959 370.589,84.117 369.222,84.407C374.303,70.64 370.019,54.626 357.657,45.406C345.206,36.119 328.481,36.646 316.719,45.625C328.866,54.877 333.057,70.744 328.014,84.407C329.381,84.117 330.796,83.959 332.25,83.959C343.487,83.959 352.596,93.068 352.596,104.305C352.596,110.767 349.573,116.515 344.876,120.242C347.978,122.969 350.379,126.57 351.644,130.822C354.41,140.112 350.961,149.771 343.716,155.352C351.448,165.406 353.031,179.46 346.605,191.333C342.972,198.049 337.349,202.996 330.866,205.859C330.887,205.898 330.902,205.939 330.923,205.979C333.646,208.105 335.765,211.057 336.826,214.62C339.542,223.741 334.349,233.338 325.227,236.054C321.821,237.067 318.351,236.978 315.195,235.994C314.47,249.586 305.355,261.876 291.563,265.983C285.602,267.758 279.539,267.773 273.922,266.335C273.158,273.238 269.234,279.509 263.235,283.205C267.412,282.379 271.42,280.765 275.01,278.414C280.663,285.189 290.002,288.333 298.995,285.656C308.034,282.964 314.153,275.156 315.129,266.336C320.745,267.774 326.809,267.76 332.77,265.985C346.562,261.877 355.677,249.587 356.402,235.995C359.558,236.979 363.029,237.068 366.434,236.055C375.556,233.339 380.749,223.742 378.033,214.621C376.972,211.057 374.853,208.106 372.13,205.98C372.111,205.94 372.094,205.898 372.074,205.86C378.557,202.997 384.178,198.05 387.813,191.335C394.238,179.46 392.655,165.406 384.923,155.353C392.17,149.771 395.619,140.113 392.852,130.822Z" style="fill:rgb(99,166,66);fill-rule:nonzero;"/>
                        <g>
                            <path d="M308.383,463.494L218.534,493.658L73.78,62.484C65.449,37.673 78.811,10.807 103.622,2.478C128.433,-5.852 155.299,7.509 163.628,32.32L308.383,463.494Z" style="fill:rgb(255,225,173);fill-rule:nonzero;"/>
                            <path d="M163.628,32.319C155.299,7.508 128.433,-5.852 103.622,2.477C101.709,3.119 99.873,3.884 98.1,4.737C109.186,10.092 118.193,19.726 122.421,32.319L267.174,463.494L214.359,481.225L218.533,493.658L308.382,463.494L163.628,32.319Z" style="fill:rgb(247,211,148);fill-rule:nonzero;"/>
                            <g>
                                <path d="M142.079,35.494C138.676,32.921 133.83,33.598 131.257,37.003L102.671,74.855C96.779,82.657 108.786,92.399 115.002,84.168L143.589,46.316C146.16,42.911 145.484,38.065 142.079,35.494Z" style="fill:rgb(230,184,105);fill-rule:nonzero;"/>
                                <path d="M159.204,86.5C155.799,83.929 150.953,84.605 148.382,88.009L119.796,125.861C113.903,133.663 125.911,143.405 132.127,135.174L160.713,97.322C163.285,93.917 162.609,89.072 159.204,86.5Z" style="fill:rgb(230,184,105);fill-rule:nonzero;"/>
                            </g>
                        </g>
                        <circle cx="310.669" cy="135.63" r="39.49" style="fill:rgb(252,101,101);"/>
                        <path d="M310.669,96.139C303.117,96.139 296.064,98.261 290.065,101.936C301.393,108.879 308.951,121.37 308.951,135.628C308.951,149.887 301.392,162.378 290.065,169.321C296.064,172.997 303.117,175.118 310.669,175.118C332.479,175.118 350.159,157.438 350.159,135.628C350.159,113.819 332.479,96.139 310.669,96.139Z" style="fill:rgb(252,63,63);fill-rule:nonzero;"/>
                        <circle cx="389.65" cy="151.082" r="39.49" style="fill:rgb(252,101,101);"/>
                        <path d="M389.65,111.591C382.098,111.591 375.045,113.713 369.046,117.389C380.374,124.332 387.932,136.822 387.932,151.081C387.932,165.34 380.373,177.831 369.046,184.773C375.045,188.45 382.098,190.571 389.65,190.571C411.459,190.571 429.139,172.891 429.139,151.081C429.139,129.271 411.459,111.591 389.65,111.591Z" style="fill:rgb(252,63,63);fill-rule:nonzero;"/>
                        <g>
                            <path d="M420.217,158.368L399.737,148.066L379.26,158.368L358.784,148.066L338.307,158.368L317.831,148.066L297.358,158.368L276.885,148.066L256.414,158.368L235.939,148.066L215.468,158.368L194.999,148.066L174.526,158.368L154.052,148.066L133.58,158.368L113.106,148.066L92.634,158.368L72.162,148.066L72.162,512L440.697,512L440.697,148.066L420.217,158.368Z" style="fill:rgb(230,184,105);fill-rule:nonzero;"/>
                            <path d="M420.217,158.368L399.737,148.066L379.26,158.368L358.784,148.066L338.307,158.368L317.831,148.066L297.358,158.368L276.885,148.066L256.414,158.368L235.939,148.066L215.468,158.368L194.999,148.066L174.526,158.368L154.052,148.066L133.58,158.368L113.106,148.066L92.634,158.368L72.162,148.066L72.162,512L440.697,512L440.697,148.066L420.217,158.368Z" style="fill:rgb(230,184,105);fill-rule:nonzero;"/>
                            <path d="M358.784,148.066L358.784,512L399.832,470.952L399.832,148.066L379.26,158.368L358.784,148.066Z" style="fill:rgb(186,141,63);fill-rule:nonzero;"/>
                            <path d="M440.697,148.066L440.697,512L399.649,470.952L399.649,148.066L420.221,158.368L440.697,148.066Z" style="fill:rgb(199,159,91);fill-rule:nonzero;"/>
                        </g>
                    </g>
                </g>
            </g>
        </g>
    </g>
    <g id="undraw_online_groceries_a02y--1-" serif:id="undraw_online_groceries_a02y (1)" transform="matrix(0.413055,0,0,0.413055,320.61,548.913)">
        <g transform="matrix(1,0,0,1,-384.962,-363.889)">
            <g transform="matrix(0.771015,0,0,0.766625,57.9234,77.3492)">
                <path d="M577.928,259.058L573.929,259.058L573.929,149.513C573.929,149.513 573.929,149.513 573.929,149.513C573.929,114.732 545.308,86.111 510.527,86.111C510.527,86.111 510.527,86.111 510.527,86.111L278.44,86.111C278.44,86.111 278.44,86.111 278.44,86.111C243.659,86.111 215.038,114.732 215.038,149.513L215.038,750.487C215.038,785.268 243.659,813.889 278.44,813.889L510.527,813.889C545.308,813.889 573.929,785.268 573.929,750.487C573.929,750.487 573.929,750.487 573.929,750.487L573.929,337.034L577.928,337.034L577.928,259.058Z" style="fill:rgb(39,45,45);fill-rule:nonzero;"/>
            </g>
            <g transform="matrix(0.771015,0,0,0.766625,57.9234,77.3492)">
                <path d="M513.085,102.606L482.79,102.606C483.89,105.303 484.456,108.189 484.456,111.102C484.456,123.441 474.303,133.596 461.963,133.597L329.003,133.597C316.664,133.596 306.51,123.441 306.51,111.102C306.51,108.189 307.076,105.303 308.176,102.606L279.881,102.606C279.881,102.606 279.881,102.606 279.881,102.606C253.906,102.606 232.533,123.98 232.533,149.954L232.533,750.046C232.533,776.02 253.906,797.394 279.881,797.394L513.085,797.394C539.059,797.394 560.433,776.02 560.433,750.046L560.433,149.954C560.433,123.979 539.059,102.606 513.085,102.606Z" style="fill:rgb(22,219,101);fill-rule:nonzero;"/>
            </g>
            <g id="qr-code--1-" serif:id="qr-code (1)" transform="matrix(0.432741,0,0,0.430277,362.473,421)">
                <g transform="matrix(1,0,0,1,-256,-256)">
                    <path d="M158.18,0L48.442,0C21.731,0 0,21.731 0,48.442L0,158.181C0,184.892 21.731,206.623 48.442,206.623L158.181,206.623C184.892,206.623 206.623,184.892 206.623,158.181L206.623,48.442C206.622,21.731 184.891,0 158.18,0ZM174.422,158.18C174.422,167.136 167.136,174.422 158.18,174.422L48.442,174.422C39.486,174.422 32.2,167.137 32.2,158.18L32.2,48.442C32.2,39.485 39.486,32.2 48.442,32.2L158.181,32.2C167.137,32.2 174.423,39.485 174.423,48.442L174.423,158.18L174.422,158.18Z" style="fill:rgb(39,45,45);fill-rule:nonzero;"/>
                    <path d="M158.18,304.962L48.442,304.962C21.731,304.962 0,326.692 0,353.403L0,463.143C0,489.853 21.731,511.584 48.442,511.584L158.181,511.584C184.892,511.584 206.623,489.853 206.623,463.143L206.623,353.403C206.622,326.692 184.891,304.962 158.18,304.962ZM174.422,463.143C174.422,472.098 167.136,479.384 158.18,479.384L48.442,479.384C39.486,479.384 32.2,472.099 32.2,463.143L32.2,353.403C32.2,344.447 39.486,337.161 48.442,337.161L158.181,337.161C167.137,337.161 174.423,344.446 174.423,353.403L174.423,463.143L174.422,463.143Z" style="fill:rgb(39,45,45);fill-rule:nonzero;"/>
                    <path d="M479.73,392.589L424.86,392.589C407.065,392.589 392.589,407.066 392.589,424.86L392.589,479.729C392.589,497.523 407.066,511.999 424.86,511.999L479.73,511.999C497.524,511.999 512,497.522 512,479.729L512,424.86C512,407.065 497.523,392.589 479.73,392.589ZM479.761,479.798C479.66,479.819 475.346,479.794 424.789,479.73L424.86,424.789L479.8,424.86L479.761,479.798Z" style="fill:rgb(39,45,45);fill-rule:nonzero;"/>
                    <path d="M327.249,392.589L272.379,392.589C254.584,392.589 240.108,407.066 240.108,424.86L240.108,479.729C240.108,497.523 254.585,511.999 272.379,511.999L327.249,511.999C345.043,511.999 359.519,497.522 359.519,479.729L359.519,424.86C359.519,407.065 345.042,392.589 327.249,392.589ZM327.28,479.798C327.179,479.819 322.865,479.794 272.308,479.73L272.379,424.789L327.319,424.86L327.28,479.798Z" style="fill:rgb(39,45,45);fill-rule:nonzero;"/>
                    <path d="M479.73,240.107L424.86,240.107C407.065,240.107 392.589,254.584 392.589,272.378L392.589,327.247C392.589,345.041 407.066,359.517 424.86,359.517L479.73,359.517C497.524,359.517 512,345.04 512,327.247L512,272.378C512,254.584 497.523,240.107 479.73,240.107ZM479.761,327.316C477.361,327.316 428.1,327.252 424.788,327.248L424.859,272.307L479.799,272.378L479.761,327.316Z" style="fill:rgb(39,45,45);fill-rule:nonzero;"/>
                    <path d="M353.403,206.622L463.143,206.622C489.853,206.622 511.584,184.891 511.584,158.18L511.584,48.442C511.584,21.731 489.853,0 463.143,0L353.403,0C326.692,0 304.961,21.731 304.961,48.442L304.961,158.181C304.962,184.891 326.693,206.622 353.403,206.622ZM337.162,48.442C337.162,39.486 344.448,32.2 353.404,32.2L463.144,32.2C472.099,32.2 479.385,39.485 479.385,48.442L479.385,158.181C479.385,167.137 472.099,174.423 463.144,174.423L353.403,174.423C344.447,174.423 337.161,167.138 337.161,158.181L337.161,48.442L337.162,48.442Z" style="fill:rgb(39,45,45);fill-rule:nonzero;"/>
                    <path d="M111.32,78.461L96.134,78.461C86.373,78.461 78.461,86.373 78.461,96.134L78.461,111.319C78.461,121.08 86.373,128.992 96.134,128.992L111.319,128.992C121.08,128.992 128.992,121.08 128.992,111.319L128.992,96.134C128.993,86.373 121.08,78.461 111.32,78.461Z" style="fill:rgb(39,45,45);fill-rule:nonzero;"/>
                    <path d="M111.32,383.422L96.134,383.422C86.373,383.422 78.461,391.335 78.461,401.095L78.461,416.28C78.461,426.041 86.373,433.953 96.134,433.953L111.319,433.953C121.08,433.953 128.992,426.041 128.992,416.28L128.992,401.095C128.993,391.336 121.08,383.422 111.32,383.422Z" style="fill:rgb(39,45,45);fill-rule:nonzero;"/>
                    <path d="M401.096,128.993L416.281,128.993C426.042,128.993 433.954,121.081 433.954,111.32L433.954,96.134C433.954,86.373 426.042,78.461 416.281,78.461L401.096,78.461C391.336,78.461 383.423,86.373 383.423,96.134L383.423,111.319C383.423,121.08 391.336,128.993 401.096,128.993Z" style="fill:rgb(39,45,45);fill-rule:nonzero;"/>
                    <path d="M256.208,119.826C265.1,119.826 272.308,112.618 272.308,103.726L272.308,16.516C272.308,7.623 265.1,0.416 256.208,0.416C247.317,0.416 240.108,7.623 240.108,16.516L240.108,103.726C240.108,112.618 247.316,119.826 256.208,119.826Z" style="fill:rgb(39,45,45);fill-rule:nonzero;"/>
                    <path d="M256.208,245.649L273.881,245.649L273.881,277.621C273.881,286.514 281.09,293.721 289.981,293.721C298.872,293.721 306.081,286.514 306.081,277.621L306.081,229.549C306.081,220.656 298.872,213.449 289.981,213.449L272.308,213.449L272.308,176.422C272.308,167.53 265.1,160.322 256.208,160.322C247.317,160.322 240.108,167.53 240.108,176.422L240.108,229.549C240.108,238.441 247.316,245.649 256.208,245.649Z" style="fill:rgb(39,45,45);fill-rule:nonzero;"/>
                    <path d="M78.461,272.307C87.353,272.307 94.561,265.1 94.561,256.207C94.561,247.315 87.353,240.107 78.461,240.107L16.517,240.107C7.625,240.107 0.417,247.315 0.417,256.207C0.417,265.1 7.625,272.307 16.517,272.307L78.461,272.307Z" style="fill:rgb(39,45,45);fill-rule:nonzero;"/>
                    <path d="M185.251,272.307C194.142,272.307 201.351,265.1 201.351,256.207C201.351,247.315 194.142,240.107 185.251,240.107L137.558,240.107C128.667,240.107 121.458,247.315 121.458,256.207C121.458,265.1 128.667,272.307 137.558,272.307L185.251,272.307Z" style="fill:rgb(39,45,45);fill-rule:nonzero;"/>
                    <path d="M343.419,289.745C334.528,289.745 327.319,296.952 327.319,305.845L327.319,327.319L256.208,327.319C247.317,327.319 240.108,334.527 240.108,343.419C240.108,352.311 247.317,359.519 256.208,359.519L343.419,359.519C352.31,359.519 359.519,352.311 359.519,343.419L359.519,305.845C359.519,296.952 352.311,289.745 343.419,289.745Z" style="fill:rgb(39,45,45);fill-rule:nonzero;"/>
                </g>
            </g>
        </g>
    </g>
    <g transform="matrix(3.25488,0,0,3.25488,-1448.9,-961.437)">
        <text x="558.683px" y="454.508px" style="font-family:'Corbel-Bold', 'Corbel', sans-serif;font-weight:700;font-size:50px;fill:rgb(39,45,45);">Mark<tspan x="668.033px 693.668px " y="454.508px 454.508px ">et</tspan></text>
        <text x="628.141px" y="506.144px" style="font-family:'OCRAExtended', 'OCR A Extended', monospace;font-size:50px;fill:rgb(22,219,101);">4</text>
        <text x="658.341px" y="506.144px" style="font-family:'OCRAExtended', 'OCR A Extended', monospace;font-size:50px;fill:rgb(39,45,45);">.</text>
        <text x="688.541px" y="506.144px" style="font-family:'OCRAExtended', 'OCR A Extended', monospace;font-size:50px;fill:rgb(22,219,101);">0</text>
    </g>
</svg>
