<?xml version="1.0" encoding="UTF-8" standalone="no"?>
<!DOCTYPE svg PUBLIC "-//W3C//DTD SVG 1.1//EN" "http://www.w3.org/Graphics/SVG/1.1/DTD/svg11.dtd">
<svg width="100%" height="100%" viewBox="0 0 1000 1000" version="1.1" xmlns="http://www.w3.org/2000/svg" xmlns:xlink="http://www.w3.org/1999/xlink" xml:space="preserve" xmlns:serif="http://www.serif.com/" style="fill-rule:evenodd;clip-rule:evenodd;stroke-linejoin:round;stroke-miterlimit:2;">
    <g id="qr-code--1-" serif:id="qr-code (1)" transform="matrix(1.80169,0,0,1.79143,38.7669,41.394)">
        <path d="M158.18,0L48.442,0C21.731,0 0,21.731 0,48.442L0,158.181C0,184.892 21.731,206.623 48.442,206.623L158.181,206.623C184.892,206.623 206.623,184.892 206.623,158.181L206.623,48.442C206.622,21.731 184.891,0 158.18,0ZM174.422,158.18C174.422,167.136 167.136,174.422 158.18,174.422L48.442,174.422C39.486,174.422 32.2,167.137 32.2,158.18L32.2,48.442C32.2,39.485 39.486,32.2 48.442,32.2L158.181,32.2C167.137,32.2 174.423,39.485 174.423,48.442L174.423,158.18L174.422,158.18Z" style="fill:rgb(39,45,45);fill-rule:nonzero;"/>
        <path d="M158.18,304.962L48.442,304.962C21.731,304.962 0,326.692 0,353.403L0,463.143C0,489.853 21.731,511.584 48.442,511.584L158.181,511.584C184.892,511.584 206.623,489.853 206.623,463.143L206.623,353.403C206.622,326.692 184.891,304.962 158.18,304.962ZM174.422,463.143C174.422,472.098 167.136,479.384 158.18,479.384L48.442,479.384C39.486,479.384 32.2,472.099 32.2,463.143L32.2,353.403C32.2,344.447 39.486,337.161 48.442,337.161L158.181,337.161C167.137,337.161 174.423,344.446 174.423,353.403L174.423,463.143L174.422,463.143Z" style="fill:rgb(39,45,45);fill-rule:nonzero;"/>
        <path d="M479.73,392.589L424.86,392.589C407.065,392.589 392.589,407.066 392.589,424.86L392.589,479.729C392.589,497.523 407.066,511.999 424.86,511.999L479.73,511.999C497.524,511.999 512,497.522 512,479.729L512,424.86C512,407.065 497.523,392.589 479.73,392.589ZM479.761,479.798C479.66,479.819 475.346,479.794 424.789,479.73L424.86,424.789L479.8,424.86L479.761,479.798Z" style="fill:rgb(39,45,45);fill-rule:nonzero;"/>
        <path d="M327.249,392.589L272.379,392.589C254.584,392.589 240.108,407.066 240.108,424.86L240.108,479.729C240.108,497.523 254.585,511.999 272.379,511.999L327.249,511.999C345.043,511.999 359.519,497.522 359.519,479.729L359.519,424.86C359.519,407.065 345.042,392.589 327.249,392.589ZM327.28,479.798C327.179,479.819 322.865,479.794 272.308,479.73L272.379,424.789L327.319,424.86L327.28,479.798Z" style="fill:rgb(39,45,45);fill-rule:nonzero;"/>
        <path d="M479.73,240.107L424.86,240.107C407.065,240.107 392.589,254.584 392.589,272.378L392.589,327.247C392.589,345.041 407.066,359.517 424.86,359.517L479.73,359.517C497.524,359.517 512,345.04 512,327.247L512,272.378C512,254.584 497.523,240.107 479.73,240.107ZM479.761,327.316C477.361,327.316 428.1,327.252 424.788,327.248L424.859,272.307L479.799,272.378L479.761,327.316Z" style="fill:rgb(39,45,45);fill-rule:nonzero;"/>
        <path d="M353.403,206.622L463.143,206.622C489.853,206.622 511.584,184.891 511.584,158.18L511.584,48.442C511.584,21.731 489.853,0 463.143,0L353.403,0C326.692,0 304.961,21.731 304.961,48.442L304.961,158.181C304.962,184.891 326.693,206.622 353.403,206.622ZM337.162,48.442C337.162,39.486 344.448,32.2 353.404,32.2L463.144,32.2C472.099,32.2 479.385,39.485 479.385,48.442L479.385,158.181C479.385,167.137 472.099,174.423 463.144,174.423L353.403,174.423C344.447,174.423 337.161,167.138 337.161,158.181L337.161,48.442L337.162,48.442Z" style="fill:rgb(39,45,45);fill-rule:nonzero;"/>
        <path d="M111.32,78.461L96.134,78.461C86.373,78.461 78.461,86.373 78.461,96.134L78.461,111.319C78.461,121.08 86.373,128.992 96.134,128.992L111.319,128.992C121.08,128.992 128.992,121.08 128.992,111.319L128.992,96.134C128.993,86.373 121.08,78.461 111.32,78.461Z" style="fill:rgb(39,45,45);fill-rule:nonzero;"/>
        <path d="M111.32,383.422L96.134,383.422C86.373,383.422 78.461,391.335 78.461,401.095L78.461,416.28C78.461,426.041 86.373,433.953 96.134,433.953L111.319,433.953C121.08,433.953 128.992,426.041 128.992,416.28L128.992,401.095C128.993,391.336 121.08,383.422 111.32,383.422Z" style="fill:rgb(39,45,45);fill-rule:nonzero;"/>
        <path d="M401.096,128.993L416.281,128.993C426.042,128.993 433.954,121.081 433.954,111.32L433.954,96.134C433.954,86.373 426.042,78.461 416.281,78.461L401.096,78.461C391.336,78.461 383.423,86.373 383.423,96.134L383.423,111.319C383.423,121.08 391.336,128.993 401.096,128.993Z" style="fill:rgb(39,45,45);fill-rule:nonzero;"/>
        <path d="M256.208,119.826C265.1,119.826 272.308,112.618 272.308,103.726L272.308,16.516C272.308,7.623 265.1,0.416 256.208,0.416C247.317,0.416 240.108,7.623 240.108,16.516L240.108,103.726C240.108,112.618 247.316,119.826 256.208,119.826Z" style="fill:rgb(39,45,45);fill-rule:nonzero;"/>
        <path d="M256.208,245.649L273.881,245.649L273.881,277.621C273.881,286.514 281.09,293.721 289.981,293.721C298.872,293.721 306.081,286.514 306.081,277.621L306.081,229.549C306.081,220.656 298.872,213.449 289.981,213.449L272.308,213.449L272.308,176.422C272.308,167.53 265.1,160.322 256.208,160.322C247.317,160.322 240.108,167.53 240.108,176.422L240.108,229.549C240.108,238.441 247.316,245.649 256.208,245.649Z" style="fill:rgb(39,45,45);fill-rule:nonzero;"/>
        <path d="M78.461,272.307C87.353,272.307 94.561,265.1 94.561,256.207C94.561,247.315 87.353,240.107 78.461,240.107L16.517,240.107C7.625,240.107 0.417,247.315 0.417,256.207C0.417,265.1 7.625,272.307 16.517,272.307L78.461,272.307Z" style="fill:rgb(39,45,45);fill-rule:nonzero;"/>
        <path d="M185.251,272.307C194.142,272.307 201.351,265.1 201.351,256.207C201.351,247.315 194.142,240.107 185.251,240.107L137.558,240.107C128.667,240.107 121.458,247.315 121.458,256.207C121.458,265.1 128.667,272.307 137.558,272.307L185.251,272.307Z" style="fill:rgb(39,45,45);fill-rule:nonzero;"/>
        <path d="M343.419,289.745C334.528,289.745 327.319,296.952 327.319,305.845L327.319,327.319L256.208,327.319C247.317,327.319 240.108,334.527 240.108,343.419C240.108,352.311 247.317,359.519 256.208,359.519L343.419,359.519C352.31,359.519 359.519,352.311 359.519,343.419L359.519,305.845C359.519,296.952 352.311,289.745 343.419,289.745Z" style="fill:rgb(39,45,45);fill-rule:nonzero;"/>
    </g>
</svg>
