<?xml version="1.0" encoding="UTF-8" standalone="no"?>
<!DOCTYPE svg PUBLIC "-//W3C//DTD SVG 1.1//EN" "http://www.w3.org/Graphics/SVG/1.1/DTD/svg11.dtd">
<svg width="100%" height="100%" viewBox="0 0 798 835" version="1.1" xmlns="http://www.w3.org/2000/svg" xmlns:xlink="http://www.w3.org/1999/xlink" xml:space="preserve" xmlns:serif="http://www.serif.com/" style="fill-rule:evenodd;clip-rule:evenodd;stroke-miterlimit:10;">
    <ellipse cx="308.5" cy="780" rx="308.5" ry="54.5" style="fill:rgb(63,61,86);"/>
    <circle cx="496" cy="301.5" r="301.5" style="fill:rgb(63,61,86);"/>
    <circle cx="496" cy="301.5" r="248.898" style="fill-opacity:0.05;"/>
    <circle cx="496" cy="301.5" r="203.994" style="fill-opacity:0.05;"/>
    <circle cx="496" cy="301.5" r="146.26" style="fill-opacity:0.05;"/>
    <g transform="matrix(1,0,0,1,-201.25,-32.75)">
        <path d="M398.42,361.232C398.42,361.232 374.716,427.954 385.251,451.658C395.787,475.362 412.467,498.188 412.467,498.188C412.467,498.188 406.322,365.622 398.42,361.232Z" style="fill:rgb(208,205,225);fill-rule:nonzero;"/>
    </g>
    <g transform="matrix(1,0,0,1,-201.25,-32.75)">
        <path d="M398.42,361.232C398.42,361.232 374.716,427.954 385.251,451.658C395.787,475.362 412.467,498.188 412.467,498.188C412.467,498.188 406.322,365.622 398.42,361.232Z" style="fill-opacity:0.1;fill-rule:nonzero;"/>
    </g>
    <g transform="matrix(1,0,0,1,-201.25,-32.75)">
        <path d="M415.101,515.747C415.101,515.747 413.345,532.427 412.467,533.305C411.589,534.183 413.345,535.939 412.467,538.573C411.589,541.207 410.711,544.718 412.467,545.596C414.223,546.474 402.81,623.731 402.81,623.731C402.81,623.731 374.716,660.604 386.129,718.547L389.641,777.368C389.641,777.368 416.857,779.124 416.857,769.467C416.857,769.467 415.101,758.054 415.101,752.786C415.101,747.519 419.49,747.519 416.857,744.885C414.223,742.251 414.223,740.495 414.223,740.495C414.223,740.495 418.613,736.984 417.735,736.106C416.857,735.228 425.636,672.895 425.636,672.895C425.636,672.895 435.293,663.238 435.293,657.97L435.293,652.703C435.293,652.703 439.683,641.29 439.683,640.412C439.683,639.534 463.387,585.981 463.387,585.981L473.044,624.609L483.579,679.919C483.579,679.919 488.846,729.96 499.382,749.275C499.382,749.275 517.818,812.485 517.818,810.729C517.818,808.973 548.545,804.584 547.667,796.682C546.789,788.781 529.231,678.163 529.231,678.163L533.621,513.991L415.101,515.747Z" style="fill:rgb(47,46,65);fill-rule:nonzero;"/>
    </g>
    <g transform="matrix(1,0,0,1,-201.25,-32.75)">
        <path d="M391.397,772.978C391.397,772.978 367.693,819.508 383.496,821.264C399.298,823.02 405.444,823.02 412.467,815.997C416.307,812.157 424.082,807.005 430.343,803.124C437.9,798.514 442.172,789.952 441.312,781.142C440.849,776.847 439.244,773.308 435.293,772.978C424.758,772.101 412.467,762.443 412.467,762.443L391.397,772.978Z" style="fill:rgb(47,46,65);fill-rule:nonzero;"/>
    </g>
    <g transform="matrix(1,0,0,1,-201.25,-32.75)">
        <path d="M522.208,807.217C522.208,807.217 498.504,853.747 514.306,855.503C530.109,857.259 536.254,857.259 543.278,850.236C547.117,846.396 554.893,841.244 561.153,837.363C568.71,832.753 572.983,824.191 572.122,815.381C571.659,811.086 570.054,807.547 566.104,807.217C555.569,806.34 543.278,796.682 543.278,796.682L522.208,807.217Z" style="fill:rgb(47,46,65);fill-rule:nonzero;"/>
    </g>
    <circle cx="295.905" cy="215.433" r="36.905" style="fill:rgb(255,184,184);"/>
    <g transform="matrix(1,0,0,1,-201.25,-32.75)">
        <path d="M473.43,260.308C473.43,260.308 447.07,308.812 444.961,308.812C442.852,308.812 492.41,324.628 492.41,324.628C492.41,324.628 506.117,278.233 508.226,274.016L473.43,260.308Z" style="fill:rgb(255,184,184);fill-rule:nonzero;"/>
    </g>
    <g transform="matrix(1,0,0,1,-201.25,-32.75)">
        <path d="M513.867,313.385C513.867,313.385 461.192,284.414 455.924,285.292C450.657,286.17 394.47,335.333 395.348,355.526C396.225,375.718 403.249,409.079 403.249,409.079C403.249,409.079 405.883,502.139 411.15,503.017C416.418,503.895 410.272,519.697 412.028,519.697C413.784,519.697 534.937,519.697 535.815,517.064C536.693,514.43 513.867,313.385 513.867,313.385Z" style="fill:rgb(208,205,225);fill-rule:nonzero;"/>
    </g>
    <g transform="matrix(1,0,0,1,-201.25,-32.75)">
        <path d="M543.278,521.892C543.278,521.892 559.958,572.812 545.911,571.056C531.865,569.3 525.719,527.16 525.719,527.16L543.278,521.892Z" style="fill:rgb(255,184,184);fill-rule:nonzero;"/>
    </g>
    <g transform="matrix(1,0,0,1,-201.25,-32.75)">
        <path d="M498.504,310.313C498.504,310.313 466.02,317.336 471.288,361.232C476.556,405.128 486.213,449.025 486.213,449.025L518.696,520.136L522.208,533.305L545.911,527.16L528.353,425.321C528.353,425.321 522.208,316.458 514.306,312.946C509.324,310.822 503.905,309.919 498.504,310.313Z" style="fill:rgb(208,205,225);fill-rule:nonzero;"/>
    </g>
    <path d="M277.5,414.958L317.885,486.947L283.86,411.09L277.5,414.958Z" style="fill-opacity:0.1;fill-rule:nonzero;"/>
    <g transform="matrix(1,0,0,1,-201.25,-32.75)">
        <path d="M533.896,237.316L534.018,234.496L539.628,235.892C539.507,234.061 538.587,232.372 537.114,231.277L543.09,230.943C532.962,216.55 517.369,206.913 499.966,204.291C487.04,202.418 472.647,205.129 463.784,214.722C459.484,219.375 456.783,225.292 454.861,231.329C451.322,242.447 450.601,255.701 457.981,264.738C465.482,273.923 478.583,275.723 490.387,276.859C494.54,277.259 498.893,277.631 502.741,276.02C503.17,271.606 502.605,267.151 501.088,262.983C500.456,261.693 500.154,260.266 500.209,258.831C500.733,255.319 505.418,254.434 508.936,254.909C512.455,255.383 516.686,256.109 518.998,253.414C520.591,251.558 520.497,248.855 520.708,246.419C521.282,239.785 533.836,238.707 533.896,237.316Z" style="fill:rgb(47,46,65);fill-rule:nonzero;"/>
    </g>
    <circle cx="559" cy="744.5" r="43" style="fill:rgb(43,222,115);"/>
    <circle cx="54" cy="729.5" r="43" style="fill:rgb(43,222,115);"/>
    <circle cx="54" cy="672.5" r="31" style="fill:rgb(43,222,115);"/>
    <circle cx="54" cy="624.5" r="22" style="fill:rgb(43,222,115);"/>
    <g transform="matrix(0.229514,0,0,0.208886,358.287,192.938)">
        <path d="M583.48,324.894C497.536,324.894 435.829,380.034 435.829,508.692C435.829,654.505 497.536,693.103 583.48,693.103C669.424,693.103 734.807,650.829 734.807,508.692C734.807,356.753 669.424,324.894 583.48,324.894ZM584.045,644.703C524.518,644.703 493.419,609.78 493.419,508.786C493.419,419.674 525.791,372.682 585.318,372.682C644.845,372.682 677.217,403.549 677.217,508.786C677.217,607.234 643.572,644.703 584.045,644.703Z" style="fill:rgb(47,46,65);fill-rule:nonzero;"/>
    </g>
    <g transform="matrix(0.229514,0,0,0.208886,358.287,192.938)">
        <path d="M384.365,591.401L348.831,591.401L348.831,486.762C348.831,475.266 339.371,465.806 327.875,465.806L319.549,465.806C319.549,465.806 319.549,465.806 319.549,465.806C308.053,465.806 298.593,475.266 298.593,486.762L298.593,591.401L198.363,591.401C198.363,591.401 198.363,591.401 198.363,591.401C191.8,591.401 186.4,586.001 186.4,579.438C186.4,577.49 186.875,575.571 187.785,573.849L293.868,373.069C295.462,370.052 296.295,366.691 296.295,363.279C296.295,355.186 291.606,347.786 284.287,344.33L278.025,341.373C267.985,336.632 255.83,340.651 250.596,350.443L121.214,592.475C119.011,596.597 117.858,601.198 117.858,605.872C117.858,621.46 130.686,634.287 146.274,634.287L298.593,634.287L298.593,700.455C298.593,714.234 309.932,725.574 323.712,725.574L323.712,725.574C337.492,725.574 348.831,714.234 348.831,700.455L348.831,634.287L384.365,634.287C396.129,634.287 405.808,624.608 405.808,612.844C405.808,601.081 396.129,591.401 384.365,591.401Z" style="fill:rgb(43,222,115);fill-rule:nonzero;"/>
    </g>
    <g transform="matrix(0.229514,0,0,0.208886,358.287,192.938)">
        <path d="M1042.36,591.401L1006.83,591.401L1006.83,486.762C1006.83,475.266 997.368,465.806 985.872,465.806L977.545,465.806C977.545,465.806 977.545,465.806 977.545,465.806C966.049,465.806 956.589,475.266 956.589,486.762L956.589,591.401L856.359,591.401C856.359,591.401 856.359,591.401 856.359,591.401C849.796,591.401 844.396,586.001 844.396,579.438C844.396,577.49 844.872,575.571 845.782,573.849L951.864,373.069C953.458,370.052 954.291,366.691 954.291,363.279C954.291,355.186 949.602,347.786 942.284,344.33L936.021,341.373C925.981,336.632 913.827,340.651 908.592,350.443L779.211,592.475C777.008,596.597 775.855,601.198 775.855,605.872C775.855,621.46 788.682,634.287 804.271,634.287L956.589,634.287L956.589,700.455C956.589,714.234 967.929,725.574 981.708,725.574C995.488,725.574 1006.83,714.234 1006.83,700.455L1006.83,634.287L1042.36,634.287C1054.13,634.287 1063.81,624.608 1063.81,612.844C1063.81,601.081 1054.13,591.401 1042.36,591.401Z" style="fill:rgb(43,222,115);fill-rule:nonzero;"/>
    </g>
    <g transform="matrix(0.229514,0,0,0.208886,358.287,192.938)">
        <path d="M394.168,579.148L358.634,579.148L358.634,474.509C358.634,474.509 358.634,474.509 358.634,474.509C358.634,463.013 349.174,453.553 337.678,453.553L329.351,453.553C317.855,453.553 308.395,463.013 308.395,474.509L308.395,579.148L208.165,579.148C208.165,579.148 208.165,579.148 208.165,579.148C201.603,579.148 196.202,573.748 196.202,567.185C196.202,565.237 196.678,563.318 197.588,561.596L303.67,360.816C305.264,357.799 306.097,354.438 306.097,351.026C306.097,342.932 301.408,335.533 294.09,332.077L287.827,329.12C277.787,324.378 265.633,328.398 260.398,338.19L131.017,580.222C128.814,584.343 127.661,588.945 127.661,593.618C127.661,609.207 140.488,622.034 156.077,622.034L308.395,622.034L308.395,688.201C308.395,701.981 319.735,713.32 333.514,713.32L333.515,713.32C347.294,713.32 358.634,701.981 358.634,688.201L358.634,622.034L394.168,622.034C405.931,622.034 415.611,612.354 415.611,600.591C415.611,600.591 415.611,600.591 415.611,600.591C415.611,588.828 405.931,579.148 394.168,579.148Z" style="fill:none;fill-rule:nonzero;stroke:rgb(63,61,86);stroke-width:1px;"/>
    </g>
    <g transform="matrix(0.229514,0,0,0.208886,358.287,192.938)">
        <path d="M1060.74,579.148L1025.21,579.148L1025.21,474.509C1025.21,463.013 1015.75,453.553 1004.25,453.553L995.925,453.553C984.429,453.553 974.969,463.013 974.969,474.509L974.969,579.148L874.739,579.148C874.739,579.148 874.739,579.148 874.739,579.148C868.176,579.148 862.776,573.748 862.776,567.185C862.776,565.237 863.252,563.318 864.162,561.596L970.244,360.816C971.838,357.799 972.671,354.438 972.671,351.026C972.671,342.932 967.982,335.533 960.664,332.077L954.401,329.12C944.361,324.378 932.206,328.398 926.972,338.19L797.59,580.222C795.387,584.343 794.235,588.945 794.235,593.618C794.235,609.207 807.062,622.034 822.65,622.034L974.969,622.034L974.969,688.201C974.969,701.981 986.308,713.32 1000.09,713.32C1013.87,713.32 1025.21,701.981 1025.21,688.201L1025.21,622.034L1060.74,622.034C1072.51,622.034 1082.18,612.354 1082.18,600.591C1082.18,588.828 1072.51,579.148 1060.74,579.148Z" style="fill:none;fill-rule:nonzero;stroke:rgb(63,61,86);stroke-width:1px;"/>
    </g>
    <g transform="matrix(0.229514,0,0,0.208886,358.287,192.938)">
        <path d="M603.085,313.866C517.141,313.866 455.434,369.006 455.434,497.664C455.434,643.477 517.141,682.075 603.085,682.075C689.029,682.075 754.412,639.801 754.412,497.664C754.412,345.725 689.029,313.866 603.085,313.866ZM603.65,633.675C544.123,633.675 513.024,598.752 513.024,497.758C513.024,408.647 545.396,361.654 604.923,361.654C664.45,361.654 696.822,392.522 696.822,497.758C696.822,596.206 663.177,633.675 603.65,633.675L603.65,633.675Z" style="fill:none;fill-rule:nonzero;stroke:rgb(63,61,86);stroke-width:1px;"/>
    </g>
</svg>
